0
SECTION
2
HEADER
9
$INSUNITS
70
4
0
ENDSEC
0
SECTION
2
TABLES
0
TABLE
2
LTYPE
0
LTYPE
72
65
70
64
2
CONTINUOUS
3
______
73
0
40
0
0
ENDTAB
0
TABLE
2
LAYER
0
ENDTAB
0
ENDSEC
0
SECTION
2
ENTITIES
0
LINE
8
0
10
-8.525
20
-9.525
11
8.525
21
-9.525
0
LINE
8
0
10
9.525
20
-8.525
11
9.525
21
2.048
0
LINE
8
0
10
-9.525
20
-8.525
11
-9.525
21
46.625
0
LINE
8
0
10
8.475
20
47.625
11
-8.525
21
47.625
0
LINE
8
0
10
10.525
20
3.048
11
27.525
21
3.048
0
LINE
8
0
10
28.525
20
4.048
11
28.525
21
6.8105
0
LINE
8
0
10
27.475
20
60.198
11
10.475
21
60.198
0
LINE
8
0
10
9.475
20
59.198
11
9.475
21
48.625
0
LINE
8
0
10
29.525
20
7.8105
11
46.475
21
7.8105
0
LINE
8
0
10
47.525
20
61.198
11
47.525
21
63.9605
0
LINE
8
0
10
46.525
20
64.9605
11
29.475
21
64.9605
0
LINE
8
0
10
28.475
20
63.9605
11
28.475
21
61.198
0
LINE
8
0
10
48.475
20
3.048
11
65.475
21
3.048
0
LINE
8
0
10
47.475
20
6.8105
11
47.475
21
4.048
0
LINE
8
0
10
66.525
20
58.3405
11
66.525
21
59.198
0
LINE
8
0
10
65.525
20
60.198
11
48.525
21
60.198
0
LINE
8
0
10
66.475
20
-1.1676336
11
66.475
21
2.048
0
LINE
8
0
10
67.525
20
57.3405
11
105.19425
21
57.3405
0
LINE
8
0
10
64.0955151
20
-20.0919432
11
81.7851358
21
-23.2111005
0
LINE
8
0
10
66.475
20
-1.1676336
11
66.418705
21
-1.1577073
0
LINE
8
0
10
66.418705
20
-1.1577073
11
63.2843555
21
-18.9334872
0
LINE
8
0
10
81.9535077
20
-23.2562157
11
98.8327467
21
-29.3997564
0
LINE
8
0
10
100.1144594
20
-28.8020839
11
106.1600356
21
-12.192
0
LINE
8
0
10
106.19425
20
-12.0979968
11
106.2879231
21
-11.8406321
0
LINE
8
0
10
106.2879231
20
-11.8406321
11
106.19425
21
-11.8065379
0
LINE
8
0
10
106.19425
20
-11.8065379
11
106.19425
21
56.3405
0
LINE
8
0
10
106.1600356
20
-12.192
11
106.19425
21
-12.192
0
LINE
8
0
10
106.19425
20
-12.192
11
106.19425
21
-12.0979968
0
ARC
8
0
10
8.525
20
-8.525
40
1
50
270
51
0
0
ARC
8
0
10
10.525
20
2.048
40
1
50
90
51
180
0
ARC
8
0
10
27.525
20
4.048
40
1
50
270
51
0
0
ARC
8
0
10
29.525
20
6.8105
40
1
50
90
51
180
0
ARC
8
0
10
46.475
20
6.8105
40
1
50
0
51
90
0
ARC
8
0
10
48.475
20
4.048
40
1
50
180
51
270
0
ARC
8
0
10
65.475
20
2.048
40
1
50
0
51
90
0
ARC
8
0
10
64.2691633
20
-19.1071354
40
1
50
169.9999992
51
259.9999992
0
ARC
8
0
10
81.6114876
20
-24.1959083
40
1
50
70.0000019
51
79.9999992
0
ARC
8
0
10
99.1747668
20
-28.4600638
40
1
50
250.0000019
51
340.0000019
0
ARC
8
0
10
105.19425
20
56.3405
40
1
50
0
51
90
0
ARC
8
0
10
67.525
20
58.3405
40
1
50
180
51
270
0
ARC
8
0
10
65.525
20
59.198
40
1
50
0
51
90
0
ARC
8
0
10
48.525
20
61.198
40
1
50
180
51
270
0
ARC
8
0
10
46.525
20
63.9605
40
1
50
0
51
90
0
ARC
8
0
10
29.475
20
63.9605
40
1
50
90
51
180
0
ARC
8
0
10
27.475
20
61.198
40
1
50
270
51
0
0
ARC
8
0
10
10.475
20
59.198
40
1
50
90
51
180
0
ARC
8
0
10
8.475
20
48.625
40
1
50
270
51
0
0
ARC
8
0
10
-8.525
20
46.625
40
1
50
90
51
180
0
ARC
8
0
10
-8.525
20
-8.525
40
1
50
180
51
270
0
ENDSEC
0
EOF