0
SECTION
2
HEADER
9
$INSUNITS
70
4
0
ENDSEC
0
SECTION
2
TABLES
0
TABLE
2
LTYPE
0
LTYPE
72
65
70
64
2
CONTINUOUS
3
______
73
0
40
0
0
ENDTAB
0
TABLE
2
LAYER
0
ENDTAB
0
ENDSEC
0
SECTION
2
ENTITIES
0
LINE
8
0
10
-7
20
-7
11
7
21
-7
0
LINE
8
0
10
7
20
-7
11
7
21
7
0
LINE
8
0
10
7
20
7
11
-7
21
7
0
LINE
8
0
10
-7
20
7
11
-7
21
-7
0
LINE
8
0
10
-7
20
12.05
11
7
21
12.05
0
LINE
8
0
10
7
20
12.05
11
7
21
26.05
0
LINE
8
0
10
7
20
26.05
11
-7
21
26.05
0
LINE
8
0
10
-7
20
26.05
11
-7
21
12.05
0
LINE
8
0
10
-7
20
31.1
11
7
21
31.1
0
LINE
8
0
10
7
20
31.1
11
7
21
45.1
0
LINE
8
0
10
7
20
45.1
11
-7
21
45.1
0
LINE
8
0
10
-7
20
45.1
11
-7
21
31.1
0
LINE
8
0
10
12
20
5.573
11
26
21
5.573
0
LINE
8
0
10
26
20
5.573
11
26
21
19.573
0
LINE
8
0
10
26
20
19.573
11
12
21
19.573
0
LINE
8
0
10
12
20
19.573
11
12
21
5.573
0
LINE
8
0
10
12
20
24.623
11
26
21
24.623
0
LINE
8
0
10
26
20
24.623
11
26
21
38.623
0
LINE
8
0
10
26
20
38.623
11
12
21
38.623
0
LINE
8
0
10
12
20
38.623
11
12
21
24.623
0
LINE
8
0
10
12
20
43.673
11
26
21
43.673
0
LINE
8
0
10
26
20
43.673
11
26
21
57.673
0
LINE
8
0
10
26
20
57.673
11
12
21
57.673
0
LINE
8
0
10
12
20
57.673
11
12
21
43.673
0
LINE
8
0
10
31
20
10.3355
11
45
21
10.3355
0
LINE
8
0
10
45
20
10.3355
11
45
21
24.3355
0
LINE
8
0
10
45
20
24.3355
11
31
21
24.3355
0
LINE
8
0
10
31
20
24.3355
11
31
21
10.3355
0
LINE
8
0
10
31
20
29.3855
11
45
21
29.3855
0
LINE
8
0
10
45
20
29.3855
11
45
21
43.3855
0
LINE
8
0
10
45
20
43.3855
11
31
21
43.3855
0
LINE
8
0
10
31
20
43.3855
11
31
21
29.3855
0
LINE
8
0
10
31
20
48.4355
11
45
21
48.4355
0
LINE
8
0
10
45
20
48.4355
11
45
21
62.4355
0
LINE
8
0
10
45
20
62.4355
11
31
21
62.4355
0
LINE
8
0
10
31
20
62.4355
11
31
21
48.4355
0
LINE
8
0
10
50
20
5.573
11
64
21
5.573
0
LINE
8
0
10
64
20
5.573
11
64
21
19.573
0
LINE
8
0
10
64
20
19.573
11
50
21
19.573
0
LINE
8
0
10
50
20
19.573
11
50
21
5.573
0
LINE
8
0
10
50
20
24.623
11
64
21
24.623
0
LINE
8
0
10
64
20
24.623
11
64
21
38.623
0
LINE
8
0
10
64
20
38.623
11
50
21
38.623
0
LINE
8
0
10
50
20
38.623
11
50
21
24.623
0
LINE
8
0
10
50
20
43.673
11
64
21
43.673
0
LINE
8
0
10
64
20
43.673
11
64
21
57.673
0
LINE
8
0
10
64
20
57.673
11
50
21
57.673
0
LINE
8
0
10
50
20
57.673
11
50
21
43.673
0
LINE
8
0
10
69
20
2.7155
11
83
21
2.7155
0
LINE
8
0
10
83
20
2.7155
11
83
21
16.7155
0
LINE
8
0
10
83
20
16.7155
11
69
21
16.7155
0
LINE
8
0
10
69
20
16.7155
11
69
21
2.7155
0
LINE
8
0
10
69
20
21.7655
11
83
21
21.7655
0
LINE
8
0
10
83
20
21.7655
11
83
21
35.7655
0
LINE
8
0
10
83
20
35.7655
11
69
21
35.7655
0
LINE
8
0
10
69
20
35.7655
11
69
21
21.7655
0
LINE
8
0
10
69
20
40.8155
11
83
21
40.8155
0
LINE
8
0
10
83
20
40.8155
11
83
21
54.8155
0
LINE
8
0
10
83
20
54.8155
11
69
21
54.8155
0
LINE
8
0
10
69
20
54.8155
11
69
21
40.8155
0
LINE
8
0
10
66.0358085
20
-17.870117
11
79.823117
21
-20.3011915
0
LINE
8
0
10
79.823117
20
-20.3011915
11
82.2541915
21
-6.513883
0
LINE
8
0
10
82.2541915
20
-6.513883
11
68.466883
21
-4.0828085
0
LINE
8
0
10
68.466883
20
-4.0828085
11
66.0358085
21
-17.870117
0
LINE
8
0
10
85.1076197
20
-21.7171697
11
98.2633163
21
-26.5054517
0
LINE
8
0
10
98.2633163
20
-26.5054517
11
103.0515983
21
-13.3497551
0
LINE
8
0
10
103.0515983
20
-13.3497551
11
89.8959017
21
-8.5614731
0
LINE
8
0
10
89.8959017
20
-8.5614731
11
85.1076197
21
-21.7171697
0
ENDSEC
0
EOF