0
SECTION
2
HEADER
9
$INSUNITS
70
4
0
ENDSEC
0
SECTION
2
TABLES
0
TABLE
2
LTYPE
0
LTYPE
72
65
70
64
2
CONTINUOUS
3
______
73
0
40
0
0
ENDTAB
0
TABLE
2
LAYER
0
ENDTAB
0
ENDSEC
0
SECTION
2
ENTITIES
0
LINE
8
0
10
-8.525
20
-9.525
11
8.525
21
-9.525
0
LINE
8
0
10
9.525
20
-8.525
11
9.525
21
2.048
0
LINE
8
0
10
-9.525
20
-8.525
11
-9.525
21
46.625
0
LINE
8
0
10
8.475
20
47.625
11
-8.525
21
47.625
0
LINE
8
0
10
10.525
20
3.048
11
27.525
21
3.048
0
LINE
8
0
10
28.525
20
4.048
11
28.525
21
6.8105
0
LINE
8
0
10
27.475
20
60.198
11
10.475
21
60.198
0
LINE
8
0
10
9.475
20
59.198
11
9.475
21
48.625
0
LINE
8
0
10
29.525
20
7.8105
11
46.475
21
7.8105
0
LINE
8
0
10
47.525
20
61.198
11
47.525
21
63.9605
0
LINE
8
0
10
46.525
20
64.9605
11
29.475
21
64.9605
0
LINE
8
0
10
28.475
20
63.9605
11
28.475
21
61.198
0
LINE
8
0
10
48.475
20
3.048
11
65.475
21
3.048
0
LINE
8
0
10
47.475
20
6.8105
11
47.475
21
4.048
0
LINE
8
0
10
66.525
20
58.3405
11
66.525
21
59.198
0
LINE
8
0
10
65.525
20
60.198
11
48.525
21
60.198
0
LINE
8
0
10
66.475
20
-1.1676336
11
66.475
21
2.048
0
LINE
8
0
10
67.525
20
57.3405
11
105.19425
21
57.3405
0
LINE
8
0
10
64.0955151
20
-20.0919432
11
81.7851358
21
-23.2111005
0
LINE
8
0
10
66.475
20
-1.1676336
11
66.418705
21
-1.1577073
0
LINE
8
0
10
66.418705
20
-1.1577073
11
63.2843555
21
-18.9334872
0
LINE
8
0
10
81.9535077
20
-23.2562157
11
98.8327467
21
-29.3997564
0
LINE
8
0
10
100.1144594
20
-28.8020839
11
106.1600356
21
-12.192
0
LINE
8
0
10
106.19425
20
-12.0979968
11
106.2879231
21
-11.8406321
0
LINE
8
0
10
106.2879231
20
-11.8406321
11
106.19425
21
-11.8065379
0
LINE
8
0
10
106.19425
20
-11.8065379
11
106.19425
21
56.3405
0
LINE
8
0
10
106.1600356
20
-12.192
11
106.19425
21
-12.192
0
LINE
8
0
10
106.19425
20
-12.192
11
106.19425
21
-12.0979968
0
ARC
8
0
10
8.525
20
-8.525
40
1
50
270
51
0
0
ARC
8
0
10
10.525
20
2.048
40
1
50
90
51
180
0
ARC
8
0
10
27.525
20
4.048
40
1
50
270
51
0
0
ARC
8
0
10
29.525
20
6.8105
40
1
50
90
51
180
0
ARC
8
0
10
46.475
20
6.8105
40
1
50
0
51
90
0
ARC
8
0
10
48.475
20
4.048
40
1
50
180
51
270
0
ARC
8
0
10
65.475
20
2.048
40
1
50
0
51
90
0
ARC
8
0
10
64.2691633
20
-19.1071354
40
1
50
169.9999992
51
259.9999992
0
ARC
8
0
10
81.6114876
20
-24.1959083
40
1
50
70.0000019
51
79.9999992
0
ARC
8
0
10
99.1747668
20
-28.4600638
40
1
50
250.0000019
51
339.9999965
0
ARC
8
0
10
105.19425
20
56.3405
40
1
50
0
51
90
0
ARC
8
0
10
67.525
20
58.3405
40
1
50
180
51
270
0
ARC
8
0
10
65.525
20
59.198
40
1
50
0
51
90
0
ARC
8
0
10
48.525
20
61.198
40
1
50
180
51
270
0
ARC
8
0
10
46.525
20
63.9605
40
1
50
0
51
90
0
ARC
8
0
10
29.475
20
63.9605
40
1
50
90
51
180
0
ARC
8
0
10
27.475
20
61.198
40
1
50
270
51
0
0
ARC
8
0
10
10.475
20
59.198
40
1
50
90
51
180
0
ARC
8
0
10
8.475
20
48.625
40
1
50
270
51
0
0
ARC
8
0
10
-8.525
20
46.625
40
1
50
90
51
180
0
ARC
8
0
10
-8.525
20
-8.525
40
1
50
180
51
270
0
ARC
8
0
10
99.6446131
20
-28.6310739
40
0.5
50
339.9999965
51
340.0000019
0
LINE
8
0
10
-7
20
-7
11
7
21
-7
0
LINE
8
0
10
7
20
-7
11
7
21
7
0
LINE
8
0
10
7
20
7
11
-7
21
7
0
LINE
8
0
10
-7
20
7
11
-7
21
-7
0
LINE
8
0
10
-7
20
12.05
11
7
21
12.05
0
LINE
8
0
10
7
20
12.05
11
7
21
26.05
0
LINE
8
0
10
7
20
26.05
11
-7
21
26.05
0
LINE
8
0
10
-7
20
26.05
11
-7
21
12.05
0
LINE
8
0
10
-7
20
31.1
11
7
21
31.1
0
LINE
8
0
10
7
20
31.1
11
7
21
45.1
0
LINE
8
0
10
7
20
45.1
11
-7
21
45.1
0
LINE
8
0
10
-7
20
45.1
11
-7
21
31.1
0
LINE
8
0
10
12
20
5.573
11
26
21
5.573
0
LINE
8
0
10
26
20
5.573
11
26
21
19.573
0
LINE
8
0
10
26
20
19.573
11
12
21
19.573
0
LINE
8
0
10
12
20
19.573
11
12
21
5.573
0
LINE
8
0
10
12
20
24.623
11
26
21
24.623
0
LINE
8
0
10
26
20
24.623
11
26
21
38.623
0
LINE
8
0
10
26
20
38.623
11
12
21
38.623
0
LINE
8
0
10
12
20
38.623
11
12
21
24.623
0
LINE
8
0
10
12
20
43.673
11
26
21
43.673
0
LINE
8
0
10
26
20
43.673
11
26
21
57.673
0
LINE
8
0
10
26
20
57.673
11
12
21
57.673
0
LINE
8
0
10
12
20
57.673
11
12
21
43.673
0
LINE
8
0
10
31
20
10.3355
11
45
21
10.3355
0
LINE
8
0
10
45
20
10.3355
11
45
21
24.3355
0
LINE
8
0
10
45
20
24.3355
11
31
21
24.3355
0
LINE
8
0
10
31
20
24.3355
11
31
21
10.3355
0
LINE
8
0
10
31
20
29.3855
11
45
21
29.3855
0
LINE
8
0
10
45
20
29.3855
11
45
21
43.3855
0
LINE
8
0
10
45
20
43.3855
11
31
21
43.3855
0
LINE
8
0
10
31
20
43.3855
11
31
21
29.3855
0
LINE
8
0
10
31
20
48.4355
11
45
21
48.4355
0
LINE
8
0
10
45
20
48.4355
11
45
21
62.4355
0
LINE
8
0
10
45
20
62.4355
11
31
21
62.4355
0
LINE
8
0
10
31
20
62.4355
11
31
21
48.4355
0
LINE
8
0
10
50
20
5.573
11
64
21
5.573
0
LINE
8
0
10
64
20
5.573
11
64
21
19.573
0
LINE
8
0
10
64
20
19.573
11
50
21
19.573
0
LINE
8
0
10
50
20
19.573
11
50
21
5.573
0
LINE
8
0
10
50
20
24.623
11
64
21
24.623
0
LINE
8
0
10
64
20
24.623
11
64
21
38.623
0
LINE
8
0
10
64
20
38.623
11
50
21
38.623
0
LINE
8
0
10
50
20
38.623
11
50
21
24.623
0
LINE
8
0
10
50
20
43.673
11
64
21
43.673
0
LINE
8
0
10
64
20
43.673
11
64
21
57.673
0
LINE
8
0
10
64
20
57.673
11
50
21
57.673
0
LINE
8
0
10
50
20
57.673
11
50
21
43.673
0
LINE
8
0
10
69
20
2.7155
11
83
21
2.7155
0
LINE
8
0
10
83
20
2.7155
11
83
21
16.7155
0
LINE
8
0
10
83
20
16.7155
11
69
21
16.7155
0
LINE
8
0
10
69
20
16.7155
11
69
21
2.7155
0
LINE
8
0
10
69
20
21.7655
11
83
21
21.7655
0
LINE
8
0
10
83
20
21.7655
11
83
21
35.7655
0
LINE
8
0
10
83
20
35.7655
11
69
21
35.7655
0
LINE
8
0
10
69
20
35.7655
11
69
21
21.7655
0
LINE
8
0
10
69
20
40.8155
11
83
21
40.8155
0
LINE
8
0
10
83
20
40.8155
11
83
21
54.8155
0
LINE
8
0
10
83
20
54.8155
11
69
21
54.8155
0
LINE
8
0
10
69
20
54.8155
11
69
21
40.8155
0
LINE
8
0
10
66.0358085
20
-17.870117
11
79.823117
21
-20.3011915
0
LINE
8
0
10
79.823117
20
-20.3011915
11
82.2541915
21
-6.513883
0
LINE
8
0
10
82.2541915
20
-6.513883
11
68.466883
21
-4.0828085
0
LINE
8
0
10
68.466883
20
-4.0828085
11
66.0358085
21
-17.870117
0
LINE
8
0
10
85.1076197
20
-21.7171697
11
98.2633163
21
-26.5054517
0
LINE
8
0
10
98.2633163
20
-26.5054517
11
103.0515983
21
-13.3497551
0
LINE
8
0
10
103.0515983
20
-13.3497551
11
89.8959017
21
-8.5614731
0
LINE
8
0
10
89.8959017
20
-8.5614731
11
85.1076197
21
-21.7171697
0
ENDSEC
0
EOF