M48
; DRILL file {KiCad 7.0.0} date Sun 26 Feb 2023 13:34:22 GMT
; FORMAT={-:-/ absolute / inch / decimal}
; #@! TF.CreationDate,2023-02-26T13:34:22+00:00
; #@! TF.GenerationSoftware,Kicad,Pcbnew,7.0.0
; #@! TF.FileFunction,Plated,1,2,PTH
FMAT,2
INCH
; #@! TA.AperFunction,Plated,PTH,ComponentDrill
T1C0.0295
; #@! TA.AperFunction,Plated,PTH,ComponentDrill
T2C0.0354
; #@! TA.AperFunction,Plated,PTH,ComponentDrill
T3C0.0430
; #@! TA.AperFunction,Plated,PTH,ComponentDrill
T4C0.0590
%
G90
G05
T1
X3.7028Y0.6075
X3.7815Y0.6075
T3
X3.5171Y2.095
X3.5171Y1.995
X3.5171Y1.895
X3.5171Y1.795
X3.5171Y1.695
X3.5171Y1.595
X3.5171Y1.495
X3.5171Y1.395
X3.5171Y1.295
X3.5171Y1.195
X3.5171Y1.095
X3.5171Y0.995
X4.1171Y2.095
X4.1171Y1.995
X4.1171Y1.895
X4.1171Y1.795
X4.1171Y1.695
X4.1171Y1.595
X4.1171Y1.495
X4.1171Y1.395
X4.1171Y1.295
X4.1171Y1.195
X4.1171Y1.095
X4.1171Y0.995
T4
X-0.15Y1.6
X-0.15Y0.85
X-0.15Y0.1
X-0.1Y1.7
X-0.1Y0.95
X-0.1Y0.2
X0.1Y1.7
X0.1Y0.95
X0.1Y0.2
X0.15Y1.6
X0.15Y0.85
X0.15Y0.1
X0.598Y2.095
X0.598Y1.345
X0.598Y0.595
X0.648Y2.195
X0.648Y1.445
X0.648Y0.695
X0.848Y2.195
X0.848Y1.445
X0.848Y0.695
X0.898Y2.095
X0.898Y1.345
X0.898Y0.595
X1.3461Y2.2825
X1.3461Y1.5325
X1.3461Y0.7825
X1.3961Y2.3825
X1.3961Y1.6325
X1.3961Y0.8825
X1.5961Y2.3825
X1.5961Y1.6325
X1.5961Y0.8825
X1.6461Y2.2825
X1.6461Y1.5325
X1.6461Y0.7825
X2.0941Y2.095
X2.0941Y1.345
X2.0941Y0.595
X2.1441Y2.195
X2.1441Y1.445
X2.1441Y0.695
X2.3441Y2.195
X2.3441Y1.445
X2.3441Y0.695
X2.3941Y2.095
X2.3941Y1.345
X2.3941Y0.595
X2.7887Y-0.3555
X2.8421Y1.9825
X2.8421Y1.2325
X2.8421Y0.4825
X2.8553Y-0.2657
X2.8921Y2.0825
X2.8921Y1.3325
X2.8921Y0.5825
X3.0523Y-0.3004
X3.0842Y-0.4076
X3.0921Y2.0825
X3.0921Y1.3325
X3.0921Y0.5825
X3.1421Y1.9825
X3.1421Y1.2325
X3.1421Y0.4825
X3.5972Y-0.545
X3.6784Y-0.4682
X3.8663Y-0.5366
X3.8791Y-0.6476
T2
G00X3.7402Y0.3549
M15
G01X3.7165Y0.3549
M16
G05
G00X3.7402Y0.2644
M15
G01X3.7165Y0.2644
M16
G05
G00X3.7835Y0.4455
M15
G01X3.7598Y0.4455
M16
G05
G00X3.7835Y0.1738
M15
G01X3.7598Y0.1738
M16
G05
G00X3.9409Y0.4455
M15
G01X3.9173Y0.4455
M16
G05
G00X3.9409Y0.1738
M15
G01X3.9173Y0.1738
M16
G05
G00X4.0591Y0.4455
M15
G01X4.0354Y0.4455
M16
G05
G00X4.0591Y0.1738
M15
G01X4.0354Y0.1738
M16
G05
T0
M30
