%TF.GenerationSoftware,KiCad,Pcbnew,(7.0.0)*%
%TF.CreationDate,2023-03-27T22:06:22+01:00*%
%TF.ProjectId,olacc-34,6f6c6163-632d-4333-942e-6b696361645f,v1.0.0*%
%TF.SameCoordinates,Original*%
%TF.FileFunction,Legend,Bot*%
%TF.FilePolarity,Positive*%
%FSLAX46Y46*%
G04 Gerber Fmt 4.6, Leading zero omitted, Abs format (unit mm)*
G04 Created by KiCad (PCBNEW (7.0.0)) date 2023-03-27 22:06:22*
%MOMM*%
%LPD*%
G01*
G04 APERTURE LIST*
%ADD10C,0.300000*%
%ADD11C,0.225000*%
%ADD12C,0.150000*%
%ADD13R,1.752600X1.752600*%
%ADD14C,1.752600*%
G04 APERTURE END LIST*
D10*
X101321428Y-1591071D02*
X100321428Y-3091071D01*
X100321428Y-1591071D02*
X101321428Y-3091071D01*
X99107143Y-3091071D02*
X99107143Y-2305357D01*
X99107143Y-2305357D02*
X99178571Y-2162500D01*
X99178571Y-2162500D02*
X99321428Y-2091071D01*
X99321428Y-2091071D02*
X99607143Y-2091071D01*
X99607143Y-2091071D02*
X99750000Y-2162500D01*
X99107143Y-3019642D02*
X99250000Y-3091071D01*
X99250000Y-3091071D02*
X99607143Y-3091071D01*
X99607143Y-3091071D02*
X99750000Y-3019642D01*
X99750000Y-3019642D02*
X99821428Y-2876785D01*
X99821428Y-2876785D02*
X99821428Y-2733928D01*
X99821428Y-2733928D02*
X99750000Y-2591071D01*
X99750000Y-2591071D02*
X99607143Y-2519642D01*
X99607143Y-2519642D02*
X99250000Y-2519642D01*
X99250000Y-2519642D02*
X99107143Y-2448214D01*
X98392857Y-2091071D02*
X98392857Y-3091071D01*
X98392857Y-2233928D02*
X98321428Y-2162500D01*
X98321428Y-2162500D02*
X98178571Y-2091071D01*
X98178571Y-2091071D02*
X97964285Y-2091071D01*
X97964285Y-2091071D02*
X97821428Y-2162500D01*
X97821428Y-2162500D02*
X97750000Y-2305357D01*
X97750000Y-2305357D02*
X97750000Y-3091071D01*
X96392857Y-3091071D02*
X96392857Y-1591071D01*
X96392857Y-3019642D02*
X96535714Y-3091071D01*
X96535714Y-3091071D02*
X96821428Y-3091071D01*
X96821428Y-3091071D02*
X96964285Y-3019642D01*
X96964285Y-3019642D02*
X97035714Y-2948214D01*
X97035714Y-2948214D02*
X97107142Y-2805357D01*
X97107142Y-2805357D02*
X97107142Y-2376785D01*
X97107142Y-2376785D02*
X97035714Y-2233928D01*
X97035714Y-2233928D02*
X96964285Y-2162500D01*
X96964285Y-2162500D02*
X96821428Y-2091071D01*
X96821428Y-2091071D02*
X96535714Y-2091071D01*
X96535714Y-2091071D02*
X96392857Y-2162500D01*
X95107142Y-3019642D02*
X95249999Y-3091071D01*
X95249999Y-3091071D02*
X95535714Y-3091071D01*
X95535714Y-3091071D02*
X95678571Y-3019642D01*
X95678571Y-3019642D02*
X95749999Y-2876785D01*
X95749999Y-2876785D02*
X95749999Y-2305357D01*
X95749999Y-2305357D02*
X95678571Y-2162500D01*
X95678571Y-2162500D02*
X95535714Y-2091071D01*
X95535714Y-2091071D02*
X95249999Y-2091071D01*
X95249999Y-2091071D02*
X95107142Y-2162500D01*
X95107142Y-2162500D02*
X95035714Y-2305357D01*
X95035714Y-2305357D02*
X95035714Y-2448214D01*
X95035714Y-2448214D02*
X95749999Y-2591071D01*
X94392857Y-3091071D02*
X94392857Y-2091071D01*
X94392857Y-2376785D02*
X94321428Y-2233928D01*
X94321428Y-2233928D02*
X94250000Y-2162500D01*
X94250000Y-2162500D02*
X94107142Y-2091071D01*
X94107142Y-2091071D02*
X93964285Y-2091071D01*
X92564286Y-3091071D02*
X92564286Y-1591071D01*
X90992857Y-3091071D02*
X91492857Y-2376785D01*
X91850000Y-3091071D02*
X91850000Y-1591071D01*
X91850000Y-1591071D02*
X91278571Y-1591071D01*
X91278571Y-1591071D02*
X91135714Y-1662500D01*
X91135714Y-1662500D02*
X91064285Y-1733928D01*
X91064285Y-1733928D02*
X90992857Y-1876785D01*
X90992857Y-1876785D02*
X90992857Y-2091071D01*
X90992857Y-2091071D02*
X91064285Y-2233928D01*
X91064285Y-2233928D02*
X91135714Y-2305357D01*
X91135714Y-2305357D02*
X91278571Y-2376785D01*
X91278571Y-2376785D02*
X91850000Y-2376785D01*
X90350000Y-2305357D02*
X89850000Y-2305357D01*
X89635714Y-3091071D02*
X90350000Y-3091071D01*
X90350000Y-3091071D02*
X90350000Y-1591071D01*
X90350000Y-1591071D02*
X89635714Y-1591071D01*
X103575714Y-693928D02*
X102432856Y-693928D01*
X102432857Y-693928D02*
X101289999Y-693928D01*
X101290000Y-693928D02*
X100147142Y-693928D01*
X100147143Y-693928D02*
X99004285Y-693928D01*
X99004286Y-693928D02*
X97861428Y-693928D01*
X97861429Y-693928D02*
X96718571Y-693928D01*
X103504285Y326428D02*
X103647142Y397857D01*
X103647142Y397857D02*
X103718571Y469285D01*
X103718571Y469285D02*
X103789999Y612142D01*
X103789999Y612142D02*
X103789999Y1040714D01*
X103789999Y1040714D02*
X103718571Y1183571D01*
X103718571Y1183571D02*
X103647142Y1255000D01*
X103647142Y1255000D02*
X103504285Y1326428D01*
X103504285Y1326428D02*
X103289999Y1326428D01*
X103289999Y1326428D02*
X103147142Y1255000D01*
X103147142Y1255000D02*
X103075714Y1183571D01*
X103075714Y1183571D02*
X103004285Y1040714D01*
X103004285Y1040714D02*
X103004285Y612142D01*
X103004285Y612142D02*
X103075714Y469285D01*
X103075714Y469285D02*
X103147142Y397857D01*
X103147142Y397857D02*
X103289999Y326428D01*
X103289999Y326428D02*
X103504285Y326428D01*
X102147142Y326428D02*
X102289999Y397857D01*
X102289999Y397857D02*
X102361428Y540714D01*
X102361428Y540714D02*
X102361428Y1826428D01*
X100932857Y326428D02*
X100932857Y1112142D01*
X100932857Y1112142D02*
X101004285Y1255000D01*
X101004285Y1255000D02*
X101147142Y1326428D01*
X101147142Y1326428D02*
X101432857Y1326428D01*
X101432857Y1326428D02*
X101575714Y1255000D01*
X100932857Y397857D02*
X101075714Y326428D01*
X101075714Y326428D02*
X101432857Y326428D01*
X101432857Y326428D02*
X101575714Y397857D01*
X101575714Y397857D02*
X101647142Y540714D01*
X101647142Y540714D02*
X101647142Y683571D01*
X101647142Y683571D02*
X101575714Y826428D01*
X101575714Y826428D02*
X101432857Y897857D01*
X101432857Y897857D02*
X101075714Y897857D01*
X101075714Y897857D02*
X100932857Y969285D01*
X99575714Y397857D02*
X99718571Y326428D01*
X99718571Y326428D02*
X100004285Y326428D01*
X100004285Y326428D02*
X100147142Y397857D01*
X100147142Y397857D02*
X100218571Y469285D01*
X100218571Y469285D02*
X100289999Y612142D01*
X100289999Y612142D02*
X100289999Y1040714D01*
X100289999Y1040714D02*
X100218571Y1183571D01*
X100218571Y1183571D02*
X100147142Y1255000D01*
X100147142Y1255000D02*
X100004285Y1326428D01*
X100004285Y1326428D02*
X99718571Y1326428D01*
X99718571Y1326428D02*
X99575714Y1255000D01*
X98290000Y397857D02*
X98432857Y326428D01*
X98432857Y326428D02*
X98718571Y326428D01*
X98718571Y326428D02*
X98861428Y397857D01*
X98861428Y397857D02*
X98932857Y469285D01*
X98932857Y469285D02*
X99004285Y612142D01*
X99004285Y612142D02*
X99004285Y1040714D01*
X99004285Y1040714D02*
X98932857Y1183571D01*
X98932857Y1183571D02*
X98861428Y1255000D01*
X98861428Y1255000D02*
X98718571Y1326428D01*
X98718571Y1326428D02*
X98432857Y1326428D01*
X98432857Y1326428D02*
X98290000Y1255000D01*
X97790000Y1826428D02*
X96861428Y1826428D01*
X96861428Y1826428D02*
X97361428Y1255000D01*
X97361428Y1255000D02*
X97147143Y1255000D01*
X97147143Y1255000D02*
X97004286Y1183571D01*
X97004286Y1183571D02*
X96932857Y1112142D01*
X96932857Y1112142D02*
X96861428Y969285D01*
X96861428Y969285D02*
X96861428Y612142D01*
X96861428Y612142D02*
X96932857Y469285D01*
X96932857Y469285D02*
X97004286Y397857D01*
X97004286Y397857D02*
X97147143Y326428D01*
X97147143Y326428D02*
X97575714Y326428D01*
X97575714Y326428D02*
X97718571Y397857D01*
X97718571Y397857D02*
X97790000Y469285D01*
X95575715Y1326428D02*
X95575715Y326428D01*
X95932857Y1897857D02*
X96290000Y826428D01*
X96290000Y826428D02*
X95361429Y826428D01*
X101135714Y-4111428D02*
X99992856Y-4111428D01*
X99992857Y-4111428D02*
X98849999Y-4111428D01*
X98850000Y-4111428D02*
X97707142Y-4111428D01*
X97707143Y-4111428D02*
X96564285Y-4111428D01*
X96564286Y-4111428D02*
X95421428Y-4111428D01*
X95421429Y-4111428D02*
X94278571Y-4111428D01*
X94278572Y-4111428D02*
X93135714Y-4111428D01*
X93135715Y-4111428D02*
X91992857Y-4111428D01*
X91992858Y-4111428D02*
X90850000Y-4111428D01*
X90850001Y-4111428D02*
X89707143Y-4111428D01*
D11*
X96327142Y-257142D02*
X96112856Y-857142D01*
X96112856Y-857142D02*
X95898571Y-257142D01*
X95384285Y42857D02*
X95298571Y42857D01*
X95298571Y42857D02*
X95212857Y0D01*
X95212857Y0D02*
X95170000Y-42857D01*
X95170000Y-42857D02*
X95127142Y-128571D01*
X95127142Y-128571D02*
X95084285Y-300000D01*
X95084285Y-300000D02*
X95084285Y-514285D01*
X95084285Y-514285D02*
X95127142Y-685714D01*
X95127142Y-685714D02*
X95170000Y-771428D01*
X95170000Y-771428D02*
X95212857Y-814285D01*
X95212857Y-814285D02*
X95298571Y-857142D01*
X95298571Y-857142D02*
X95384285Y-857142D01*
X95384285Y-857142D02*
X95470000Y-814285D01*
X95470000Y-814285D02*
X95512857Y-771428D01*
X95512857Y-771428D02*
X95555714Y-685714D01*
X95555714Y-685714D02*
X95598571Y-514285D01*
X95598571Y-514285D02*
X95598571Y-300000D01*
X95598571Y-300000D02*
X95555714Y-128571D01*
X95555714Y-128571D02*
X95512857Y-42857D01*
X95512857Y-42857D02*
X95470000Y0D01*
X95470000Y0D02*
X95384285Y42857D01*
X94698571Y-771428D02*
X94655714Y-814285D01*
X94655714Y-814285D02*
X94698571Y-857142D01*
X94698571Y-857142D02*
X94741428Y-814285D01*
X94741428Y-814285D02*
X94698571Y-771428D01*
X94698571Y-771428D02*
X94698571Y-857142D01*
X93798571Y-857142D02*
X94312857Y-857142D01*
X94055714Y-857142D02*
X94055714Y42857D01*
X94055714Y42857D02*
X94141428Y-85714D01*
X94141428Y-85714D02*
X94227143Y-171428D01*
X94227143Y-171428D02*
X94312857Y-214285D01*
D12*
%TO.C,T2*%
X105925000Y21215500D02*
X103075000Y21215500D01*
X103075000Y21215500D02*
X103075000Y14615500D01*
X105925000Y17915500D02*
X105925000Y21215500D01*
X105925000Y17915500D02*
X105925000Y14615500D01*
X105925000Y15965500D02*
X105925000Y19865500D01*
X103075000Y14615500D02*
X105925000Y14615500D01*
%TO.C,JST1*%
X96930000Y13890000D02*
X96930000Y21490000D01*
X96930000Y21490000D02*
X91030000Y21490000D01*
X96230000Y13890000D02*
X96930000Y13890000D01*
X96230000Y15490000D02*
X96230000Y13890000D01*
X95230000Y16990000D02*
X94730000Y16990000D01*
X94980000Y16740000D02*
X94980000Y17240000D01*
X91730000Y13890000D02*
X91730000Y15490000D01*
X91730000Y15490000D02*
X96230000Y15490000D01*
X91030000Y13890000D02*
X91730000Y13890000D01*
X91030000Y21490000D02*
X91030000Y13890000D01*
%TD*%
D13*
%TO.C,MCU1*%
X89334999Y53212999D03*
D14*
X89335000Y50673000D03*
X89335000Y48133000D03*
X89335000Y45593000D03*
X89335000Y43053000D03*
X89335000Y40513000D03*
X89335000Y37973000D03*
X89335000Y35433000D03*
X89335000Y32893000D03*
X89335000Y30353000D03*
X89335000Y27813000D03*
X89335000Y25273000D03*
X104575000Y53213000D03*
X104575000Y50673000D03*
X104575000Y48133000D03*
X104575000Y45593000D03*
X104575000Y43053000D03*
X104575000Y40513000D03*
X104575000Y37973000D03*
X104575000Y35433000D03*
X104575000Y32893000D03*
X104575000Y30353000D03*
X104575000Y27813000D03*
X104575000Y25273000D03*
%TD*%
M02*
