%TF.GenerationSoftware,KiCad,Pcbnew,(7.0.0)*%
%TF.CreationDate,2023-03-27T22:06:22+01:00*%
%TF.ProjectId,olacc-34,6f6c6163-632d-4333-942e-6b696361645f,v1.0.0*%
%TF.SameCoordinates,Original*%
%TF.FileFunction,Legend,Top*%
%TF.FilePolarity,Positive*%
%FSLAX46Y46*%
G04 Gerber Fmt 4.6, Leading zero omitted, Abs format (unit mm)*
G04 Created by KiCad (PCBNEW (7.0.0)) date 2023-03-27 22:06:22*
%MOMM*%
%LPD*%
G01*
G04 APERTURE LIST*
%ADD10C,0.300000*%
%ADD11C,0.225000*%
%ADD12C,0.150000*%
%ADD13R,1.752600X1.752600*%
%ADD14C,1.752600*%
G04 APERTURE END LIST*
D10*
X89471428Y326428D02*
X89328571Y397857D01*
X89328571Y397857D02*
X89257142Y469285D01*
X89257142Y469285D02*
X89185714Y612142D01*
X89185714Y612142D02*
X89185714Y1040714D01*
X89185714Y1040714D02*
X89257142Y1183571D01*
X89257142Y1183571D02*
X89328571Y1255000D01*
X89328571Y1255000D02*
X89471428Y1326428D01*
X89471428Y1326428D02*
X89685714Y1326428D01*
X89685714Y1326428D02*
X89828571Y1255000D01*
X89828571Y1255000D02*
X89900000Y1183571D01*
X89900000Y1183571D02*
X89971428Y1040714D01*
X89971428Y1040714D02*
X89971428Y612142D01*
X89971428Y612142D02*
X89900000Y469285D01*
X89900000Y469285D02*
X89828571Y397857D01*
X89828571Y397857D02*
X89685714Y326428D01*
X89685714Y326428D02*
X89471428Y326428D01*
X90828571Y326428D02*
X90685714Y397857D01*
X90685714Y397857D02*
X90614285Y540714D01*
X90614285Y540714D02*
X90614285Y1826428D01*
X92042857Y326428D02*
X92042857Y1112142D01*
X92042857Y1112142D02*
X91971428Y1255000D01*
X91971428Y1255000D02*
X91828571Y1326428D01*
X91828571Y1326428D02*
X91542857Y1326428D01*
X91542857Y1326428D02*
X91399999Y1255000D01*
X92042857Y397857D02*
X91899999Y326428D01*
X91899999Y326428D02*
X91542857Y326428D01*
X91542857Y326428D02*
X91399999Y397857D01*
X91399999Y397857D02*
X91328571Y540714D01*
X91328571Y540714D02*
X91328571Y683571D01*
X91328571Y683571D02*
X91399999Y826428D01*
X91399999Y826428D02*
X91542857Y897857D01*
X91542857Y897857D02*
X91899999Y897857D01*
X91899999Y897857D02*
X92042857Y969285D01*
X93400000Y397857D02*
X93257142Y326428D01*
X93257142Y326428D02*
X92971428Y326428D01*
X92971428Y326428D02*
X92828571Y397857D01*
X92828571Y397857D02*
X92757142Y469285D01*
X92757142Y469285D02*
X92685714Y612142D01*
X92685714Y612142D02*
X92685714Y1040714D01*
X92685714Y1040714D02*
X92757142Y1183571D01*
X92757142Y1183571D02*
X92828571Y1255000D01*
X92828571Y1255000D02*
X92971428Y1326428D01*
X92971428Y1326428D02*
X93257142Y1326428D01*
X93257142Y1326428D02*
X93400000Y1255000D01*
X94685714Y397857D02*
X94542856Y326428D01*
X94542856Y326428D02*
X94257142Y326428D01*
X94257142Y326428D02*
X94114285Y397857D01*
X94114285Y397857D02*
X94042856Y469285D01*
X94042856Y469285D02*
X93971428Y612142D01*
X93971428Y612142D02*
X93971428Y1040714D01*
X93971428Y1040714D02*
X94042856Y1183571D01*
X94042856Y1183571D02*
X94114285Y1255000D01*
X94114285Y1255000D02*
X94257142Y1326428D01*
X94257142Y1326428D02*
X94542856Y1326428D01*
X94542856Y1326428D02*
X94685714Y1255000D01*
X95185713Y1826428D02*
X96114285Y1826428D01*
X96114285Y1826428D02*
X95614285Y1255000D01*
X95614285Y1255000D02*
X95828570Y1255000D01*
X95828570Y1255000D02*
X95971428Y1183571D01*
X95971428Y1183571D02*
X96042856Y1112142D01*
X96042856Y1112142D02*
X96114285Y969285D01*
X96114285Y969285D02*
X96114285Y612142D01*
X96114285Y612142D02*
X96042856Y469285D01*
X96042856Y469285D02*
X95971428Y397857D01*
X95971428Y397857D02*
X95828570Y326428D01*
X95828570Y326428D02*
X95399999Y326428D01*
X95399999Y326428D02*
X95257142Y397857D01*
X95257142Y397857D02*
X95185713Y469285D01*
X97399999Y1326428D02*
X97399999Y326428D01*
X97042856Y1897857D02*
X96685713Y826428D01*
X96685713Y826428D02*
X97614284Y826428D01*
D11*
X96648571Y-257142D02*
X96862857Y-857142D01*
X96862857Y-857142D02*
X97077142Y-257142D01*
X97591428Y42857D02*
X97677142Y42857D01*
X97677142Y42857D02*
X97762856Y0D01*
X97762856Y0D02*
X97805714Y-42857D01*
X97805714Y-42857D02*
X97848571Y-128571D01*
X97848571Y-128571D02*
X97891428Y-300000D01*
X97891428Y-300000D02*
X97891428Y-514285D01*
X97891428Y-514285D02*
X97848571Y-685714D01*
X97848571Y-685714D02*
X97805714Y-771428D01*
X97805714Y-771428D02*
X97762856Y-814285D01*
X97762856Y-814285D02*
X97677142Y-857142D01*
X97677142Y-857142D02*
X97591428Y-857142D01*
X97591428Y-857142D02*
X97505714Y-814285D01*
X97505714Y-814285D02*
X97462856Y-771428D01*
X97462856Y-771428D02*
X97419999Y-685714D01*
X97419999Y-685714D02*
X97377142Y-514285D01*
X97377142Y-514285D02*
X97377142Y-300000D01*
X97377142Y-300000D02*
X97419999Y-128571D01*
X97419999Y-128571D02*
X97462856Y-42857D01*
X97462856Y-42857D02*
X97505714Y0D01*
X97505714Y0D02*
X97591428Y42857D01*
X98277142Y-771428D02*
X98319999Y-814285D01*
X98319999Y-814285D02*
X98277142Y-857142D01*
X98277142Y-857142D02*
X98234285Y-814285D01*
X98234285Y-814285D02*
X98277142Y-771428D01*
X98277142Y-771428D02*
X98277142Y-857142D01*
X99177142Y-857142D02*
X98662856Y-857142D01*
X98919999Y-857142D02*
X98919999Y42857D01*
X98919999Y42857D02*
X98834285Y-85714D01*
X98834285Y-85714D02*
X98748570Y-171428D01*
X98748570Y-171428D02*
X98662856Y-214285D01*
D10*
X91654285Y-1591071D02*
X92654285Y-3091071D01*
X92654285Y-1591071D02*
X91654285Y-3091071D01*
X93868571Y-3091071D02*
X93868571Y-2305357D01*
X93868571Y-2305357D02*
X93797142Y-2162500D01*
X93797142Y-2162500D02*
X93654285Y-2091071D01*
X93654285Y-2091071D02*
X93368571Y-2091071D01*
X93368571Y-2091071D02*
X93225713Y-2162500D01*
X93868571Y-3019642D02*
X93725713Y-3091071D01*
X93725713Y-3091071D02*
X93368571Y-3091071D01*
X93368571Y-3091071D02*
X93225713Y-3019642D01*
X93225713Y-3019642D02*
X93154285Y-2876785D01*
X93154285Y-2876785D02*
X93154285Y-2733928D01*
X93154285Y-2733928D02*
X93225713Y-2591071D01*
X93225713Y-2591071D02*
X93368571Y-2519642D01*
X93368571Y-2519642D02*
X93725713Y-2519642D01*
X93725713Y-2519642D02*
X93868571Y-2448214D01*
X94582856Y-2091071D02*
X94582856Y-3091071D01*
X94582856Y-2233928D02*
X94654285Y-2162500D01*
X94654285Y-2162500D02*
X94797142Y-2091071D01*
X94797142Y-2091071D02*
X95011428Y-2091071D01*
X95011428Y-2091071D02*
X95154285Y-2162500D01*
X95154285Y-2162500D02*
X95225714Y-2305357D01*
X95225714Y-2305357D02*
X95225714Y-3091071D01*
X96582857Y-3091071D02*
X96582857Y-1591071D01*
X96582857Y-3019642D02*
X96439999Y-3091071D01*
X96439999Y-3091071D02*
X96154285Y-3091071D01*
X96154285Y-3091071D02*
X96011428Y-3019642D01*
X96011428Y-3019642D02*
X95939999Y-2948214D01*
X95939999Y-2948214D02*
X95868571Y-2805357D01*
X95868571Y-2805357D02*
X95868571Y-2376785D01*
X95868571Y-2376785D02*
X95939999Y-2233928D01*
X95939999Y-2233928D02*
X96011428Y-2162500D01*
X96011428Y-2162500D02*
X96154285Y-2091071D01*
X96154285Y-2091071D02*
X96439999Y-2091071D01*
X96439999Y-2091071D02*
X96582857Y-2162500D01*
X97868571Y-3019642D02*
X97725714Y-3091071D01*
X97725714Y-3091071D02*
X97440000Y-3091071D01*
X97440000Y-3091071D02*
X97297142Y-3019642D01*
X97297142Y-3019642D02*
X97225714Y-2876785D01*
X97225714Y-2876785D02*
X97225714Y-2305357D01*
X97225714Y-2305357D02*
X97297142Y-2162500D01*
X97297142Y-2162500D02*
X97440000Y-2091071D01*
X97440000Y-2091071D02*
X97725714Y-2091071D01*
X97725714Y-2091071D02*
X97868571Y-2162500D01*
X97868571Y-2162500D02*
X97940000Y-2305357D01*
X97940000Y-2305357D02*
X97940000Y-2448214D01*
X97940000Y-2448214D02*
X97225714Y-2591071D01*
X98582856Y-3091071D02*
X98582856Y-2091071D01*
X98582856Y-2376785D02*
X98654285Y-2233928D01*
X98654285Y-2233928D02*
X98725714Y-2162500D01*
X98725714Y-2162500D02*
X98868571Y-2091071D01*
X98868571Y-2091071D02*
X99011428Y-2091071D01*
X100411427Y-3091071D02*
X100411427Y-1591071D01*
X101982856Y-3091071D02*
X101482856Y-2376785D01*
X101125713Y-3091071D02*
X101125713Y-1591071D01*
X101125713Y-1591071D02*
X101697142Y-1591071D01*
X101697142Y-1591071D02*
X101839999Y-1662500D01*
X101839999Y-1662500D02*
X101911428Y-1733928D01*
X101911428Y-1733928D02*
X101982856Y-1876785D01*
X101982856Y-1876785D02*
X101982856Y-2091071D01*
X101982856Y-2091071D02*
X101911428Y-2233928D01*
X101911428Y-2233928D02*
X101839999Y-2305357D01*
X101839999Y-2305357D02*
X101697142Y-2376785D01*
X101697142Y-2376785D02*
X101125713Y-2376785D01*
X102625713Y-2305357D02*
X103125713Y-2305357D01*
X103339999Y-3091071D02*
X102625713Y-3091071D01*
X102625713Y-3091071D02*
X102625713Y-1591071D01*
X102625713Y-1591071D02*
X103339999Y-1591071D01*
X91840000Y-4111428D02*
X92982857Y-4111428D01*
X92982857Y-4111428D02*
X94125714Y-4111428D01*
X94125714Y-4111428D02*
X95268571Y-4111428D01*
X95268571Y-4111428D02*
X96411428Y-4111428D01*
X96411428Y-4111428D02*
X97554285Y-4111428D01*
X97554285Y-4111428D02*
X98697142Y-4111428D01*
X98697142Y-4111428D02*
X99839999Y-4111428D01*
X99839999Y-4111428D02*
X100982856Y-4111428D01*
X100982856Y-4111428D02*
X102125713Y-4111428D01*
X102125713Y-4111428D02*
X103268570Y-4111428D01*
X89400000Y-693928D02*
X90542857Y-693928D01*
X90542857Y-693928D02*
X91685714Y-693928D01*
X91685714Y-693928D02*
X92828571Y-693928D01*
X92828571Y-693928D02*
X93971428Y-693928D01*
X93971428Y-693928D02*
X95114285Y-693928D01*
X95114285Y-693928D02*
X96257142Y-693928D01*
D12*
%TO.C,MCU1*%
X91088333Y46099095D02*
X91355000Y45299095D01*
X91355000Y45299095D02*
X91621666Y46099095D01*
X92345476Y45375285D02*
X92307380Y45337190D01*
X92307380Y45337190D02*
X92193095Y45299095D01*
X92193095Y45299095D02*
X92116904Y45299095D01*
X92116904Y45299095D02*
X92002618Y45337190D01*
X92002618Y45337190D02*
X91926428Y45413380D01*
X91926428Y45413380D02*
X91888333Y45489571D01*
X91888333Y45489571D02*
X91850237Y45641952D01*
X91850237Y45641952D02*
X91850237Y45756238D01*
X91850237Y45756238D02*
X91888333Y45908619D01*
X91888333Y45908619D02*
X91926428Y45984809D01*
X91926428Y45984809D02*
X92002618Y46061000D01*
X92002618Y46061000D02*
X92116904Y46099095D01*
X92116904Y46099095D02*
X92193095Y46099095D01*
X92193095Y46099095D02*
X92307380Y46061000D01*
X92307380Y46061000D02*
X92345476Y46022904D01*
X93145476Y45375285D02*
X93107380Y45337190D01*
X93107380Y45337190D02*
X92993095Y45299095D01*
X92993095Y45299095D02*
X92916904Y45299095D01*
X92916904Y45299095D02*
X92802618Y45337190D01*
X92802618Y45337190D02*
X92726428Y45413380D01*
X92726428Y45413380D02*
X92688333Y45489571D01*
X92688333Y45489571D02*
X92650237Y45641952D01*
X92650237Y45641952D02*
X92650237Y45756238D01*
X92650237Y45756238D02*
X92688333Y45908619D01*
X92688333Y45908619D02*
X92726428Y45984809D01*
X92726428Y45984809D02*
X92802618Y46061000D01*
X92802618Y46061000D02*
X92916904Y46099095D01*
X92916904Y46099095D02*
X92993095Y46099095D01*
X92993095Y46099095D02*
X93107380Y46061000D01*
X93107380Y46061000D02*
X93145476Y46022904D01*
X91183571Y32599095D02*
X91183571Y33399095D01*
X91183571Y33399095D02*
X91488333Y33399095D01*
X91488333Y33399095D02*
X91564523Y33361000D01*
X91564523Y33361000D02*
X91602618Y33322904D01*
X91602618Y33322904D02*
X91640714Y33246714D01*
X91640714Y33246714D02*
X91640714Y33132428D01*
X91640714Y33132428D02*
X91602618Y33056238D01*
X91602618Y33056238D02*
X91564523Y33018142D01*
X91564523Y33018142D02*
X91488333Y32980047D01*
X91488333Y32980047D02*
X91183571Y32980047D01*
X92402618Y32599095D02*
X91945475Y32599095D01*
X92174047Y32599095D02*
X92174047Y33399095D01*
X92174047Y33399095D02*
X92097856Y33284809D01*
X92097856Y33284809D02*
X92021666Y33208619D01*
X92021666Y33208619D02*
X91945475Y33170523D01*
X93126428Y33399095D02*
X92745476Y33399095D01*
X92745476Y33399095D02*
X92707380Y33018142D01*
X92707380Y33018142D02*
X92745476Y33056238D01*
X92745476Y33056238D02*
X92821666Y33094333D01*
X92821666Y33094333D02*
X93012142Y33094333D01*
X93012142Y33094333D02*
X93088333Y33056238D01*
X93088333Y33056238D02*
X93126428Y33018142D01*
X93126428Y33018142D02*
X93164523Y32941952D01*
X93164523Y32941952D02*
X93164523Y32751476D01*
X93164523Y32751476D02*
X93126428Y32675285D01*
X93126428Y32675285D02*
X93088333Y32637190D01*
X93088333Y32637190D02*
X93012142Y32599095D01*
X93012142Y32599095D02*
X92821666Y32599095D01*
X92821666Y32599095D02*
X92745476Y32637190D01*
X92745476Y32637190D02*
X92707380Y32675285D01*
X91183571Y42759095D02*
X91183571Y43559095D01*
X91183571Y43559095D02*
X91488333Y43559095D01*
X91488333Y43559095D02*
X91564523Y43521000D01*
X91564523Y43521000D02*
X91602618Y43482904D01*
X91602618Y43482904D02*
X91640714Y43406714D01*
X91640714Y43406714D02*
X91640714Y43292428D01*
X91640714Y43292428D02*
X91602618Y43216238D01*
X91602618Y43216238D02*
X91564523Y43178142D01*
X91564523Y43178142D02*
X91488333Y43140047D01*
X91488333Y43140047D02*
X91183571Y43140047D01*
X91945475Y43482904D02*
X91983571Y43521000D01*
X91983571Y43521000D02*
X92059761Y43559095D01*
X92059761Y43559095D02*
X92250237Y43559095D01*
X92250237Y43559095D02*
X92326428Y43521000D01*
X92326428Y43521000D02*
X92364523Y43482904D01*
X92364523Y43482904D02*
X92402618Y43406714D01*
X92402618Y43406714D02*
X92402618Y43330523D01*
X92402618Y43330523D02*
X92364523Y43216238D01*
X92364523Y43216238D02*
X91907380Y42759095D01*
X91907380Y42759095D02*
X92402618Y42759095D01*
X93164523Y42759095D02*
X92707380Y42759095D01*
X92935952Y42759095D02*
X92935952Y43559095D01*
X92935952Y43559095D02*
X92859761Y43444809D01*
X92859761Y43444809D02*
X92783571Y43368619D01*
X92783571Y43368619D02*
X92707380Y43330523D01*
X100783571Y42759095D02*
X100783571Y43559095D01*
X100783571Y43559095D02*
X101088333Y43559095D01*
X101088333Y43559095D02*
X101164523Y43521000D01*
X101164523Y43521000D02*
X101202618Y43482904D01*
X101202618Y43482904D02*
X101240714Y43406714D01*
X101240714Y43406714D02*
X101240714Y43292428D01*
X101240714Y43292428D02*
X101202618Y43216238D01*
X101202618Y43216238D02*
X101164523Y43178142D01*
X101164523Y43178142D02*
X101088333Y43140047D01*
X101088333Y43140047D02*
X100783571Y43140047D01*
X101735952Y43559095D02*
X101812142Y43559095D01*
X101812142Y43559095D02*
X101888333Y43521000D01*
X101888333Y43521000D02*
X101926428Y43482904D01*
X101926428Y43482904D02*
X101964523Y43406714D01*
X101964523Y43406714D02*
X102002618Y43254333D01*
X102002618Y43254333D02*
X102002618Y43063857D01*
X102002618Y43063857D02*
X101964523Y42911476D01*
X101964523Y42911476D02*
X101926428Y42835285D01*
X101926428Y42835285D02*
X101888333Y42797190D01*
X101888333Y42797190D02*
X101812142Y42759095D01*
X101812142Y42759095D02*
X101735952Y42759095D01*
X101735952Y42759095D02*
X101659761Y42797190D01*
X101659761Y42797190D02*
X101621666Y42835285D01*
X101621666Y42835285D02*
X101583571Y42911476D01*
X101583571Y42911476D02*
X101545475Y43063857D01*
X101545475Y43063857D02*
X101545475Y43254333D01*
X101545475Y43254333D02*
X101583571Y43406714D01*
X101583571Y43406714D02*
X101621666Y43482904D01*
X101621666Y43482904D02*
X101659761Y43521000D01*
X101659761Y43521000D02*
X101735952Y43559095D01*
X102307380Y43482904D02*
X102345476Y43521000D01*
X102345476Y43521000D02*
X102421666Y43559095D01*
X102421666Y43559095D02*
X102612142Y43559095D01*
X102612142Y43559095D02*
X102688333Y43521000D01*
X102688333Y43521000D02*
X102726428Y43482904D01*
X102726428Y43482904D02*
X102764523Y43406714D01*
X102764523Y43406714D02*
X102764523Y43330523D01*
X102764523Y43330523D02*
X102726428Y43216238D01*
X102726428Y43216238D02*
X102269285Y42759095D01*
X102269285Y42759095D02*
X102764523Y42759095D01*
X100783571Y50379095D02*
X100783571Y51179095D01*
X100783571Y51179095D02*
X101088333Y51179095D01*
X101088333Y51179095D02*
X101164523Y51141000D01*
X101164523Y51141000D02*
X101202618Y51102904D01*
X101202618Y51102904D02*
X101240714Y51026714D01*
X101240714Y51026714D02*
X101240714Y50912428D01*
X101240714Y50912428D02*
X101202618Y50836238D01*
X101202618Y50836238D02*
X101164523Y50798142D01*
X101164523Y50798142D02*
X101088333Y50760047D01*
X101088333Y50760047D02*
X100783571Y50760047D01*
X101735952Y51179095D02*
X101812142Y51179095D01*
X101812142Y51179095D02*
X101888333Y51141000D01*
X101888333Y51141000D02*
X101926428Y51102904D01*
X101926428Y51102904D02*
X101964523Y51026714D01*
X101964523Y51026714D02*
X102002618Y50874333D01*
X102002618Y50874333D02*
X102002618Y50683857D01*
X102002618Y50683857D02*
X101964523Y50531476D01*
X101964523Y50531476D02*
X101926428Y50455285D01*
X101926428Y50455285D02*
X101888333Y50417190D01*
X101888333Y50417190D02*
X101812142Y50379095D01*
X101812142Y50379095D02*
X101735952Y50379095D01*
X101735952Y50379095D02*
X101659761Y50417190D01*
X101659761Y50417190D02*
X101621666Y50455285D01*
X101621666Y50455285D02*
X101583571Y50531476D01*
X101583571Y50531476D02*
X101545475Y50683857D01*
X101545475Y50683857D02*
X101545475Y50874333D01*
X101545475Y50874333D02*
X101583571Y51026714D01*
X101583571Y51026714D02*
X101621666Y51102904D01*
X101621666Y51102904D02*
X101659761Y51141000D01*
X101659761Y51141000D02*
X101735952Y51179095D01*
X102497857Y51179095D02*
X102574047Y51179095D01*
X102574047Y51179095D02*
X102650238Y51141000D01*
X102650238Y51141000D02*
X102688333Y51102904D01*
X102688333Y51102904D02*
X102726428Y51026714D01*
X102726428Y51026714D02*
X102764523Y50874333D01*
X102764523Y50874333D02*
X102764523Y50683857D01*
X102764523Y50683857D02*
X102726428Y50531476D01*
X102726428Y50531476D02*
X102688333Y50455285D01*
X102688333Y50455285D02*
X102650238Y50417190D01*
X102650238Y50417190D02*
X102574047Y50379095D01*
X102574047Y50379095D02*
X102497857Y50379095D01*
X102497857Y50379095D02*
X102421666Y50417190D01*
X102421666Y50417190D02*
X102383571Y50455285D01*
X102383571Y50455285D02*
X102345476Y50531476D01*
X102345476Y50531476D02*
X102307380Y50683857D01*
X102307380Y50683857D02*
X102307380Y50874333D01*
X102307380Y50874333D02*
X102345476Y51026714D01*
X102345476Y51026714D02*
X102383571Y51102904D01*
X102383571Y51102904D02*
X102421666Y51141000D01*
X102421666Y51141000D02*
X102497857Y51179095D01*
X91545476Y51141000D02*
X91469286Y51179095D01*
X91469286Y51179095D02*
X91355000Y51179095D01*
X91355000Y51179095D02*
X91240714Y51141000D01*
X91240714Y51141000D02*
X91164524Y51064809D01*
X91164524Y51064809D02*
X91126429Y50988619D01*
X91126429Y50988619D02*
X91088333Y50836238D01*
X91088333Y50836238D02*
X91088333Y50721952D01*
X91088333Y50721952D02*
X91126429Y50569571D01*
X91126429Y50569571D02*
X91164524Y50493380D01*
X91164524Y50493380D02*
X91240714Y50417190D01*
X91240714Y50417190D02*
X91355000Y50379095D01*
X91355000Y50379095D02*
X91431191Y50379095D01*
X91431191Y50379095D02*
X91545476Y50417190D01*
X91545476Y50417190D02*
X91583572Y50455285D01*
X91583572Y50455285D02*
X91583572Y50721952D01*
X91583572Y50721952D02*
X91431191Y50721952D01*
X91926429Y50379095D02*
X91926429Y51179095D01*
X91926429Y51179095D02*
X92383572Y50379095D01*
X92383572Y50379095D02*
X92383572Y51179095D01*
X92764524Y50379095D02*
X92764524Y51179095D01*
X92764524Y51179095D02*
X92955000Y51179095D01*
X92955000Y51179095D02*
X93069286Y51141000D01*
X93069286Y51141000D02*
X93145476Y51064809D01*
X93145476Y51064809D02*
X93183571Y50988619D01*
X93183571Y50988619D02*
X93221667Y50836238D01*
X93221667Y50836238D02*
X93221667Y50721952D01*
X93221667Y50721952D02*
X93183571Y50569571D01*
X93183571Y50569571D02*
X93145476Y50493380D01*
X93145476Y50493380D02*
X93069286Y50417190D01*
X93069286Y50417190D02*
X92955000Y50379095D01*
X92955000Y50379095D02*
X92764524Y50379095D01*
X100783571Y52919095D02*
X100783571Y53719095D01*
X100783571Y53719095D02*
X101088333Y53719095D01*
X101088333Y53719095D02*
X101164523Y53681000D01*
X101164523Y53681000D02*
X101202618Y53642904D01*
X101202618Y53642904D02*
X101240714Y53566714D01*
X101240714Y53566714D02*
X101240714Y53452428D01*
X101240714Y53452428D02*
X101202618Y53376238D01*
X101202618Y53376238D02*
X101164523Y53338142D01*
X101164523Y53338142D02*
X101088333Y53300047D01*
X101088333Y53300047D02*
X100783571Y53300047D01*
X101735952Y53719095D02*
X101812142Y53719095D01*
X101812142Y53719095D02*
X101888333Y53681000D01*
X101888333Y53681000D02*
X101926428Y53642904D01*
X101926428Y53642904D02*
X101964523Y53566714D01*
X101964523Y53566714D02*
X102002618Y53414333D01*
X102002618Y53414333D02*
X102002618Y53223857D01*
X102002618Y53223857D02*
X101964523Y53071476D01*
X101964523Y53071476D02*
X101926428Y52995285D01*
X101926428Y52995285D02*
X101888333Y52957190D01*
X101888333Y52957190D02*
X101812142Y52919095D01*
X101812142Y52919095D02*
X101735952Y52919095D01*
X101735952Y52919095D02*
X101659761Y52957190D01*
X101659761Y52957190D02*
X101621666Y52995285D01*
X101621666Y52995285D02*
X101583571Y53071476D01*
X101583571Y53071476D02*
X101545475Y53223857D01*
X101545475Y53223857D02*
X101545475Y53414333D01*
X101545475Y53414333D02*
X101583571Y53566714D01*
X101583571Y53566714D02*
X101621666Y53642904D01*
X101621666Y53642904D02*
X101659761Y53681000D01*
X101659761Y53681000D02*
X101735952Y53719095D01*
X102764523Y52919095D02*
X102307380Y52919095D01*
X102535952Y52919095D02*
X102535952Y53719095D01*
X102535952Y53719095D02*
X102459761Y53604809D01*
X102459761Y53604809D02*
X102383571Y53528619D01*
X102383571Y53528619D02*
X102307380Y53490523D01*
X100783571Y37679095D02*
X100783571Y38479095D01*
X100783571Y38479095D02*
X101088333Y38479095D01*
X101088333Y38479095D02*
X101164523Y38441000D01*
X101164523Y38441000D02*
X101202618Y38402904D01*
X101202618Y38402904D02*
X101240714Y38326714D01*
X101240714Y38326714D02*
X101240714Y38212428D01*
X101240714Y38212428D02*
X101202618Y38136238D01*
X101202618Y38136238D02*
X101164523Y38098142D01*
X101164523Y38098142D02*
X101088333Y38060047D01*
X101088333Y38060047D02*
X100783571Y38060047D01*
X101735952Y38479095D02*
X101812142Y38479095D01*
X101812142Y38479095D02*
X101888333Y38441000D01*
X101888333Y38441000D02*
X101926428Y38402904D01*
X101926428Y38402904D02*
X101964523Y38326714D01*
X101964523Y38326714D02*
X102002618Y38174333D01*
X102002618Y38174333D02*
X102002618Y37983857D01*
X102002618Y37983857D02*
X101964523Y37831476D01*
X101964523Y37831476D02*
X101926428Y37755285D01*
X101926428Y37755285D02*
X101888333Y37717190D01*
X101888333Y37717190D02*
X101812142Y37679095D01*
X101812142Y37679095D02*
X101735952Y37679095D01*
X101735952Y37679095D02*
X101659761Y37717190D01*
X101659761Y37717190D02*
X101621666Y37755285D01*
X101621666Y37755285D02*
X101583571Y37831476D01*
X101583571Y37831476D02*
X101545475Y37983857D01*
X101545475Y37983857D02*
X101545475Y38174333D01*
X101545475Y38174333D02*
X101583571Y38326714D01*
X101583571Y38326714D02*
X101621666Y38402904D01*
X101621666Y38402904D02*
X101659761Y38441000D01*
X101659761Y38441000D02*
X101735952Y38479095D01*
X102688333Y38212428D02*
X102688333Y37679095D01*
X102497857Y38517190D02*
X102307380Y37945761D01*
X102307380Y37945761D02*
X102802619Y37945761D01*
X101145476Y46061000D02*
X101069286Y46099095D01*
X101069286Y46099095D02*
X100955000Y46099095D01*
X100955000Y46099095D02*
X100840714Y46061000D01*
X100840714Y46061000D02*
X100764524Y45984809D01*
X100764524Y45984809D02*
X100726429Y45908619D01*
X100726429Y45908619D02*
X100688333Y45756238D01*
X100688333Y45756238D02*
X100688333Y45641952D01*
X100688333Y45641952D02*
X100726429Y45489571D01*
X100726429Y45489571D02*
X100764524Y45413380D01*
X100764524Y45413380D02*
X100840714Y45337190D01*
X100840714Y45337190D02*
X100955000Y45299095D01*
X100955000Y45299095D02*
X101031191Y45299095D01*
X101031191Y45299095D02*
X101145476Y45337190D01*
X101145476Y45337190D02*
X101183572Y45375285D01*
X101183572Y45375285D02*
X101183572Y45641952D01*
X101183572Y45641952D02*
X101031191Y45641952D01*
X101526429Y45299095D02*
X101526429Y46099095D01*
X101526429Y46099095D02*
X101983572Y45299095D01*
X101983572Y45299095D02*
X101983572Y46099095D01*
X102364524Y45299095D02*
X102364524Y46099095D01*
X102364524Y46099095D02*
X102555000Y46099095D01*
X102555000Y46099095D02*
X102669286Y46061000D01*
X102669286Y46061000D02*
X102745476Y45984809D01*
X102745476Y45984809D02*
X102783571Y45908619D01*
X102783571Y45908619D02*
X102821667Y45756238D01*
X102821667Y45756238D02*
X102821667Y45641952D01*
X102821667Y45641952D02*
X102783571Y45489571D01*
X102783571Y45489571D02*
X102745476Y45413380D01*
X102745476Y45413380D02*
X102669286Y45337190D01*
X102669286Y45337190D02*
X102555000Y45299095D01*
X102555000Y45299095D02*
X102364524Y45299095D01*
X91183571Y40219095D02*
X91183571Y41019095D01*
X91183571Y41019095D02*
X91488333Y41019095D01*
X91488333Y41019095D02*
X91564523Y40981000D01*
X91564523Y40981000D02*
X91602618Y40942904D01*
X91602618Y40942904D02*
X91640714Y40866714D01*
X91640714Y40866714D02*
X91640714Y40752428D01*
X91640714Y40752428D02*
X91602618Y40676238D01*
X91602618Y40676238D02*
X91564523Y40638142D01*
X91564523Y40638142D02*
X91488333Y40600047D01*
X91488333Y40600047D02*
X91183571Y40600047D01*
X91945475Y40942904D02*
X91983571Y40981000D01*
X91983571Y40981000D02*
X92059761Y41019095D01*
X92059761Y41019095D02*
X92250237Y41019095D01*
X92250237Y41019095D02*
X92326428Y40981000D01*
X92326428Y40981000D02*
X92364523Y40942904D01*
X92364523Y40942904D02*
X92402618Y40866714D01*
X92402618Y40866714D02*
X92402618Y40790523D01*
X92402618Y40790523D02*
X92364523Y40676238D01*
X92364523Y40676238D02*
X91907380Y40219095D01*
X91907380Y40219095D02*
X92402618Y40219095D01*
X92897857Y41019095D02*
X92974047Y41019095D01*
X92974047Y41019095D02*
X93050238Y40981000D01*
X93050238Y40981000D02*
X93088333Y40942904D01*
X93088333Y40942904D02*
X93126428Y40866714D01*
X93126428Y40866714D02*
X93164523Y40714333D01*
X93164523Y40714333D02*
X93164523Y40523857D01*
X93164523Y40523857D02*
X93126428Y40371476D01*
X93126428Y40371476D02*
X93088333Y40295285D01*
X93088333Y40295285D02*
X93050238Y40257190D01*
X93050238Y40257190D02*
X92974047Y40219095D01*
X92974047Y40219095D02*
X92897857Y40219095D01*
X92897857Y40219095D02*
X92821666Y40257190D01*
X92821666Y40257190D02*
X92783571Y40295285D01*
X92783571Y40295285D02*
X92745476Y40371476D01*
X92745476Y40371476D02*
X92707380Y40523857D01*
X92707380Y40523857D02*
X92707380Y40714333D01*
X92707380Y40714333D02*
X92745476Y40866714D01*
X92745476Y40866714D02*
X92783571Y40942904D01*
X92783571Y40942904D02*
X92821666Y40981000D01*
X92821666Y40981000D02*
X92897857Y41019095D01*
X91183571Y24979095D02*
X91183571Y25779095D01*
X91183571Y25779095D02*
X91488333Y25779095D01*
X91488333Y25779095D02*
X91564523Y25741000D01*
X91564523Y25741000D02*
X91602618Y25702904D01*
X91602618Y25702904D02*
X91640714Y25626714D01*
X91640714Y25626714D02*
X91640714Y25512428D01*
X91640714Y25512428D02*
X91602618Y25436238D01*
X91602618Y25436238D02*
X91564523Y25398142D01*
X91564523Y25398142D02*
X91488333Y25360047D01*
X91488333Y25360047D02*
X91183571Y25360047D01*
X92402618Y24979095D02*
X91945475Y24979095D01*
X92174047Y24979095D02*
X92174047Y25779095D01*
X92174047Y25779095D02*
X92097856Y25664809D01*
X92097856Y25664809D02*
X92021666Y25588619D01*
X92021666Y25588619D02*
X91945475Y25550523D01*
X92897857Y25779095D02*
X92974047Y25779095D01*
X92974047Y25779095D02*
X93050238Y25741000D01*
X93050238Y25741000D02*
X93088333Y25702904D01*
X93088333Y25702904D02*
X93126428Y25626714D01*
X93126428Y25626714D02*
X93164523Y25474333D01*
X93164523Y25474333D02*
X93164523Y25283857D01*
X93164523Y25283857D02*
X93126428Y25131476D01*
X93126428Y25131476D02*
X93088333Y25055285D01*
X93088333Y25055285D02*
X93050238Y25017190D01*
X93050238Y25017190D02*
X92974047Y24979095D01*
X92974047Y24979095D02*
X92897857Y24979095D01*
X92897857Y24979095D02*
X92821666Y25017190D01*
X92821666Y25017190D02*
X92783571Y25055285D01*
X92783571Y25055285D02*
X92745476Y25131476D01*
X92745476Y25131476D02*
X92707380Y25283857D01*
X92707380Y25283857D02*
X92707380Y25474333D01*
X92707380Y25474333D02*
X92745476Y25626714D01*
X92745476Y25626714D02*
X92783571Y25702904D01*
X92783571Y25702904D02*
X92821666Y25741000D01*
X92821666Y25741000D02*
X92897857Y25779095D01*
X100783571Y30059095D02*
X100783571Y30859095D01*
X100783571Y30859095D02*
X101088333Y30859095D01*
X101088333Y30859095D02*
X101164523Y30821000D01*
X101164523Y30821000D02*
X101202618Y30782904D01*
X101202618Y30782904D02*
X101240714Y30706714D01*
X101240714Y30706714D02*
X101240714Y30592428D01*
X101240714Y30592428D02*
X101202618Y30516238D01*
X101202618Y30516238D02*
X101164523Y30478142D01*
X101164523Y30478142D02*
X101088333Y30440047D01*
X101088333Y30440047D02*
X100783571Y30440047D01*
X101735952Y30859095D02*
X101812142Y30859095D01*
X101812142Y30859095D02*
X101888333Y30821000D01*
X101888333Y30821000D02*
X101926428Y30782904D01*
X101926428Y30782904D02*
X101964523Y30706714D01*
X101964523Y30706714D02*
X102002618Y30554333D01*
X102002618Y30554333D02*
X102002618Y30363857D01*
X102002618Y30363857D02*
X101964523Y30211476D01*
X101964523Y30211476D02*
X101926428Y30135285D01*
X101926428Y30135285D02*
X101888333Y30097190D01*
X101888333Y30097190D02*
X101812142Y30059095D01*
X101812142Y30059095D02*
X101735952Y30059095D01*
X101735952Y30059095D02*
X101659761Y30097190D01*
X101659761Y30097190D02*
X101621666Y30135285D01*
X101621666Y30135285D02*
X101583571Y30211476D01*
X101583571Y30211476D02*
X101545475Y30363857D01*
X101545475Y30363857D02*
X101545475Y30554333D01*
X101545475Y30554333D02*
X101583571Y30706714D01*
X101583571Y30706714D02*
X101621666Y30782904D01*
X101621666Y30782904D02*
X101659761Y30821000D01*
X101659761Y30821000D02*
X101735952Y30859095D01*
X102269285Y30859095D02*
X102802619Y30859095D01*
X102802619Y30859095D02*
X102459761Y30059095D01*
X91183571Y35139095D02*
X91183571Y35939095D01*
X91183571Y35939095D02*
X91488333Y35939095D01*
X91488333Y35939095D02*
X91564523Y35901000D01*
X91564523Y35901000D02*
X91602618Y35862904D01*
X91602618Y35862904D02*
X91640714Y35786714D01*
X91640714Y35786714D02*
X91640714Y35672428D01*
X91640714Y35672428D02*
X91602618Y35596238D01*
X91602618Y35596238D02*
X91564523Y35558142D01*
X91564523Y35558142D02*
X91488333Y35520047D01*
X91488333Y35520047D02*
X91183571Y35520047D01*
X92402618Y35139095D02*
X91945475Y35139095D01*
X92174047Y35139095D02*
X92174047Y35939095D01*
X92174047Y35939095D02*
X92097856Y35824809D01*
X92097856Y35824809D02*
X92021666Y35748619D01*
X92021666Y35748619D02*
X91945475Y35710523D01*
X92859761Y35596238D02*
X92783571Y35634333D01*
X92783571Y35634333D02*
X92745476Y35672428D01*
X92745476Y35672428D02*
X92707380Y35748619D01*
X92707380Y35748619D02*
X92707380Y35786714D01*
X92707380Y35786714D02*
X92745476Y35862904D01*
X92745476Y35862904D02*
X92783571Y35901000D01*
X92783571Y35901000D02*
X92859761Y35939095D01*
X92859761Y35939095D02*
X93012142Y35939095D01*
X93012142Y35939095D02*
X93088333Y35901000D01*
X93088333Y35901000D02*
X93126428Y35862904D01*
X93126428Y35862904D02*
X93164523Y35786714D01*
X93164523Y35786714D02*
X93164523Y35748619D01*
X93164523Y35748619D02*
X93126428Y35672428D01*
X93126428Y35672428D02*
X93088333Y35634333D01*
X93088333Y35634333D02*
X93012142Y35596238D01*
X93012142Y35596238D02*
X92859761Y35596238D01*
X92859761Y35596238D02*
X92783571Y35558142D01*
X92783571Y35558142D02*
X92745476Y35520047D01*
X92745476Y35520047D02*
X92707380Y35443857D01*
X92707380Y35443857D02*
X92707380Y35291476D01*
X92707380Y35291476D02*
X92745476Y35215285D01*
X92745476Y35215285D02*
X92783571Y35177190D01*
X92783571Y35177190D02*
X92859761Y35139095D01*
X92859761Y35139095D02*
X93012142Y35139095D01*
X93012142Y35139095D02*
X93088333Y35177190D01*
X93088333Y35177190D02*
X93126428Y35215285D01*
X93126428Y35215285D02*
X93164523Y35291476D01*
X93164523Y35291476D02*
X93164523Y35443857D01*
X93164523Y35443857D02*
X93126428Y35520047D01*
X93126428Y35520047D02*
X93088333Y35558142D01*
X93088333Y35558142D02*
X93012142Y35596238D01*
X91183571Y27519095D02*
X91183571Y28319095D01*
X91183571Y28319095D02*
X91488333Y28319095D01*
X91488333Y28319095D02*
X91564523Y28281000D01*
X91564523Y28281000D02*
X91602618Y28242904D01*
X91602618Y28242904D02*
X91640714Y28166714D01*
X91640714Y28166714D02*
X91640714Y28052428D01*
X91640714Y28052428D02*
X91602618Y27976238D01*
X91602618Y27976238D02*
X91564523Y27938142D01*
X91564523Y27938142D02*
X91488333Y27900047D01*
X91488333Y27900047D02*
X91183571Y27900047D01*
X92402618Y27519095D02*
X91945475Y27519095D01*
X92174047Y27519095D02*
X92174047Y28319095D01*
X92174047Y28319095D02*
X92097856Y28204809D01*
X92097856Y28204809D02*
X92021666Y28128619D01*
X92021666Y28128619D02*
X91945475Y28090523D01*
X93088333Y28319095D02*
X92935952Y28319095D01*
X92935952Y28319095D02*
X92859761Y28281000D01*
X92859761Y28281000D02*
X92821666Y28242904D01*
X92821666Y28242904D02*
X92745476Y28128619D01*
X92745476Y28128619D02*
X92707380Y27976238D01*
X92707380Y27976238D02*
X92707380Y27671476D01*
X92707380Y27671476D02*
X92745476Y27595285D01*
X92745476Y27595285D02*
X92783571Y27557190D01*
X92783571Y27557190D02*
X92859761Y27519095D01*
X92859761Y27519095D02*
X93012142Y27519095D01*
X93012142Y27519095D02*
X93088333Y27557190D01*
X93088333Y27557190D02*
X93126428Y27595285D01*
X93126428Y27595285D02*
X93164523Y27671476D01*
X93164523Y27671476D02*
X93164523Y27861952D01*
X93164523Y27861952D02*
X93126428Y27938142D01*
X93126428Y27938142D02*
X93088333Y27976238D01*
X93088333Y27976238D02*
X93012142Y28014333D01*
X93012142Y28014333D02*
X92859761Y28014333D01*
X92859761Y28014333D02*
X92783571Y27976238D01*
X92783571Y27976238D02*
X92745476Y27938142D01*
X92745476Y27938142D02*
X92707380Y27861952D01*
X100783571Y40219095D02*
X100783571Y41019095D01*
X100783571Y41019095D02*
X101088333Y41019095D01*
X101088333Y41019095D02*
X101164523Y40981000D01*
X101164523Y40981000D02*
X101202618Y40942904D01*
X101202618Y40942904D02*
X101240714Y40866714D01*
X101240714Y40866714D02*
X101240714Y40752428D01*
X101240714Y40752428D02*
X101202618Y40676238D01*
X101202618Y40676238D02*
X101164523Y40638142D01*
X101164523Y40638142D02*
X101088333Y40600047D01*
X101088333Y40600047D02*
X100783571Y40600047D01*
X101735952Y41019095D02*
X101812142Y41019095D01*
X101812142Y41019095D02*
X101888333Y40981000D01*
X101888333Y40981000D02*
X101926428Y40942904D01*
X101926428Y40942904D02*
X101964523Y40866714D01*
X101964523Y40866714D02*
X102002618Y40714333D01*
X102002618Y40714333D02*
X102002618Y40523857D01*
X102002618Y40523857D02*
X101964523Y40371476D01*
X101964523Y40371476D02*
X101926428Y40295285D01*
X101926428Y40295285D02*
X101888333Y40257190D01*
X101888333Y40257190D02*
X101812142Y40219095D01*
X101812142Y40219095D02*
X101735952Y40219095D01*
X101735952Y40219095D02*
X101659761Y40257190D01*
X101659761Y40257190D02*
X101621666Y40295285D01*
X101621666Y40295285D02*
X101583571Y40371476D01*
X101583571Y40371476D02*
X101545475Y40523857D01*
X101545475Y40523857D02*
X101545475Y40714333D01*
X101545475Y40714333D02*
X101583571Y40866714D01*
X101583571Y40866714D02*
X101621666Y40942904D01*
X101621666Y40942904D02*
X101659761Y40981000D01*
X101659761Y40981000D02*
X101735952Y41019095D01*
X102269285Y41019095D02*
X102764523Y41019095D01*
X102764523Y41019095D02*
X102497857Y40714333D01*
X102497857Y40714333D02*
X102612142Y40714333D01*
X102612142Y40714333D02*
X102688333Y40676238D01*
X102688333Y40676238D02*
X102726428Y40638142D01*
X102726428Y40638142D02*
X102764523Y40561952D01*
X102764523Y40561952D02*
X102764523Y40371476D01*
X102764523Y40371476D02*
X102726428Y40295285D01*
X102726428Y40295285D02*
X102688333Y40257190D01*
X102688333Y40257190D02*
X102612142Y40219095D01*
X102612142Y40219095D02*
X102383571Y40219095D01*
X102383571Y40219095D02*
X102307380Y40257190D01*
X102307380Y40257190D02*
X102269285Y40295285D01*
X100783571Y32599095D02*
X100783571Y33399095D01*
X100783571Y33399095D02*
X101088333Y33399095D01*
X101088333Y33399095D02*
X101164523Y33361000D01*
X101164523Y33361000D02*
X101202618Y33322904D01*
X101202618Y33322904D02*
X101240714Y33246714D01*
X101240714Y33246714D02*
X101240714Y33132428D01*
X101240714Y33132428D02*
X101202618Y33056238D01*
X101202618Y33056238D02*
X101164523Y33018142D01*
X101164523Y33018142D02*
X101088333Y32980047D01*
X101088333Y32980047D02*
X100783571Y32980047D01*
X101735952Y33399095D02*
X101812142Y33399095D01*
X101812142Y33399095D02*
X101888333Y33361000D01*
X101888333Y33361000D02*
X101926428Y33322904D01*
X101926428Y33322904D02*
X101964523Y33246714D01*
X101964523Y33246714D02*
X102002618Y33094333D01*
X102002618Y33094333D02*
X102002618Y32903857D01*
X102002618Y32903857D02*
X101964523Y32751476D01*
X101964523Y32751476D02*
X101926428Y32675285D01*
X101926428Y32675285D02*
X101888333Y32637190D01*
X101888333Y32637190D02*
X101812142Y32599095D01*
X101812142Y32599095D02*
X101735952Y32599095D01*
X101735952Y32599095D02*
X101659761Y32637190D01*
X101659761Y32637190D02*
X101621666Y32675285D01*
X101621666Y32675285D02*
X101583571Y32751476D01*
X101583571Y32751476D02*
X101545475Y32903857D01*
X101545475Y32903857D02*
X101545475Y33094333D01*
X101545475Y33094333D02*
X101583571Y33246714D01*
X101583571Y33246714D02*
X101621666Y33322904D01*
X101621666Y33322904D02*
X101659761Y33361000D01*
X101659761Y33361000D02*
X101735952Y33399095D01*
X102688333Y33399095D02*
X102535952Y33399095D01*
X102535952Y33399095D02*
X102459761Y33361000D01*
X102459761Y33361000D02*
X102421666Y33322904D01*
X102421666Y33322904D02*
X102345476Y33208619D01*
X102345476Y33208619D02*
X102307380Y33056238D01*
X102307380Y33056238D02*
X102307380Y32751476D01*
X102307380Y32751476D02*
X102345476Y32675285D01*
X102345476Y32675285D02*
X102383571Y32637190D01*
X102383571Y32637190D02*
X102459761Y32599095D01*
X102459761Y32599095D02*
X102612142Y32599095D01*
X102612142Y32599095D02*
X102688333Y32637190D01*
X102688333Y32637190D02*
X102726428Y32675285D01*
X102726428Y32675285D02*
X102764523Y32751476D01*
X102764523Y32751476D02*
X102764523Y32941952D01*
X102764523Y32941952D02*
X102726428Y33018142D01*
X102726428Y33018142D02*
X102688333Y33056238D01*
X102688333Y33056238D02*
X102612142Y33094333D01*
X102612142Y33094333D02*
X102459761Y33094333D01*
X102459761Y33094333D02*
X102383571Y33056238D01*
X102383571Y33056238D02*
X102345476Y33018142D01*
X102345476Y33018142D02*
X102307380Y32941952D01*
X91183571Y37679095D02*
X91183571Y38479095D01*
X91183571Y38479095D02*
X91488333Y38479095D01*
X91488333Y38479095D02*
X91564523Y38441000D01*
X91564523Y38441000D02*
X91602618Y38402904D01*
X91602618Y38402904D02*
X91640714Y38326714D01*
X91640714Y38326714D02*
X91640714Y38212428D01*
X91640714Y38212428D02*
X91602618Y38136238D01*
X91602618Y38136238D02*
X91564523Y38098142D01*
X91564523Y38098142D02*
X91488333Y38060047D01*
X91488333Y38060047D02*
X91183571Y38060047D01*
X92402618Y37679095D02*
X91945475Y37679095D01*
X92174047Y37679095D02*
X92174047Y38479095D01*
X92174047Y38479095D02*
X92097856Y38364809D01*
X92097856Y38364809D02*
X92021666Y38288619D01*
X92021666Y38288619D02*
X91945475Y38250523D01*
X92783571Y37679095D02*
X92935952Y37679095D01*
X92935952Y37679095D02*
X93012142Y37717190D01*
X93012142Y37717190D02*
X93050238Y37755285D01*
X93050238Y37755285D02*
X93126428Y37869571D01*
X93126428Y37869571D02*
X93164523Y38021952D01*
X93164523Y38021952D02*
X93164523Y38326714D01*
X93164523Y38326714D02*
X93126428Y38402904D01*
X93126428Y38402904D02*
X93088333Y38441000D01*
X93088333Y38441000D02*
X93012142Y38479095D01*
X93012142Y38479095D02*
X92859761Y38479095D01*
X92859761Y38479095D02*
X92783571Y38441000D01*
X92783571Y38441000D02*
X92745476Y38402904D01*
X92745476Y38402904D02*
X92707380Y38326714D01*
X92707380Y38326714D02*
X92707380Y38136238D01*
X92707380Y38136238D02*
X92745476Y38060047D01*
X92745476Y38060047D02*
X92783571Y38021952D01*
X92783571Y38021952D02*
X92859761Y37983857D01*
X92859761Y37983857D02*
X93012142Y37983857D01*
X93012142Y37983857D02*
X93088333Y38021952D01*
X93088333Y38021952D02*
X93126428Y38060047D01*
X93126428Y38060047D02*
X93164523Y38136238D01*
X101145476Y48601000D02*
X101069286Y48639095D01*
X101069286Y48639095D02*
X100955000Y48639095D01*
X100955000Y48639095D02*
X100840714Y48601000D01*
X100840714Y48601000D02*
X100764524Y48524809D01*
X100764524Y48524809D02*
X100726429Y48448619D01*
X100726429Y48448619D02*
X100688333Y48296238D01*
X100688333Y48296238D02*
X100688333Y48181952D01*
X100688333Y48181952D02*
X100726429Y48029571D01*
X100726429Y48029571D02*
X100764524Y47953380D01*
X100764524Y47953380D02*
X100840714Y47877190D01*
X100840714Y47877190D02*
X100955000Y47839095D01*
X100955000Y47839095D02*
X101031191Y47839095D01*
X101031191Y47839095D02*
X101145476Y47877190D01*
X101145476Y47877190D02*
X101183572Y47915285D01*
X101183572Y47915285D02*
X101183572Y48181952D01*
X101183572Y48181952D02*
X101031191Y48181952D01*
X101526429Y47839095D02*
X101526429Y48639095D01*
X101526429Y48639095D02*
X101983572Y47839095D01*
X101983572Y47839095D02*
X101983572Y48639095D01*
X102364524Y47839095D02*
X102364524Y48639095D01*
X102364524Y48639095D02*
X102555000Y48639095D01*
X102555000Y48639095D02*
X102669286Y48601000D01*
X102669286Y48601000D02*
X102745476Y48524809D01*
X102745476Y48524809D02*
X102783571Y48448619D01*
X102783571Y48448619D02*
X102821667Y48296238D01*
X102821667Y48296238D02*
X102821667Y48181952D01*
X102821667Y48181952D02*
X102783571Y48029571D01*
X102783571Y48029571D02*
X102745476Y47953380D01*
X102745476Y47953380D02*
X102669286Y47877190D01*
X102669286Y47877190D02*
X102555000Y47839095D01*
X102555000Y47839095D02*
X102364524Y47839095D01*
X100783571Y27519095D02*
X100783571Y28319095D01*
X100783571Y28319095D02*
X101088333Y28319095D01*
X101088333Y28319095D02*
X101164523Y28281000D01*
X101164523Y28281000D02*
X101202618Y28242904D01*
X101202618Y28242904D02*
X101240714Y28166714D01*
X101240714Y28166714D02*
X101240714Y28052428D01*
X101240714Y28052428D02*
X101202618Y27976238D01*
X101202618Y27976238D02*
X101164523Y27938142D01*
X101164523Y27938142D02*
X101088333Y27900047D01*
X101088333Y27900047D02*
X100783571Y27900047D01*
X101735952Y28319095D02*
X101812142Y28319095D01*
X101812142Y28319095D02*
X101888333Y28281000D01*
X101888333Y28281000D02*
X101926428Y28242904D01*
X101926428Y28242904D02*
X101964523Y28166714D01*
X101964523Y28166714D02*
X102002618Y28014333D01*
X102002618Y28014333D02*
X102002618Y27823857D01*
X102002618Y27823857D02*
X101964523Y27671476D01*
X101964523Y27671476D02*
X101926428Y27595285D01*
X101926428Y27595285D02*
X101888333Y27557190D01*
X101888333Y27557190D02*
X101812142Y27519095D01*
X101812142Y27519095D02*
X101735952Y27519095D01*
X101735952Y27519095D02*
X101659761Y27557190D01*
X101659761Y27557190D02*
X101621666Y27595285D01*
X101621666Y27595285D02*
X101583571Y27671476D01*
X101583571Y27671476D02*
X101545475Y27823857D01*
X101545475Y27823857D02*
X101545475Y28014333D01*
X101545475Y28014333D02*
X101583571Y28166714D01*
X101583571Y28166714D02*
X101621666Y28242904D01*
X101621666Y28242904D02*
X101659761Y28281000D01*
X101659761Y28281000D02*
X101735952Y28319095D01*
X102459761Y27976238D02*
X102383571Y28014333D01*
X102383571Y28014333D02*
X102345476Y28052428D01*
X102345476Y28052428D02*
X102307380Y28128619D01*
X102307380Y28128619D02*
X102307380Y28166714D01*
X102307380Y28166714D02*
X102345476Y28242904D01*
X102345476Y28242904D02*
X102383571Y28281000D01*
X102383571Y28281000D02*
X102459761Y28319095D01*
X102459761Y28319095D02*
X102612142Y28319095D01*
X102612142Y28319095D02*
X102688333Y28281000D01*
X102688333Y28281000D02*
X102726428Y28242904D01*
X102726428Y28242904D02*
X102764523Y28166714D01*
X102764523Y28166714D02*
X102764523Y28128619D01*
X102764523Y28128619D02*
X102726428Y28052428D01*
X102726428Y28052428D02*
X102688333Y28014333D01*
X102688333Y28014333D02*
X102612142Y27976238D01*
X102612142Y27976238D02*
X102459761Y27976238D01*
X102459761Y27976238D02*
X102383571Y27938142D01*
X102383571Y27938142D02*
X102345476Y27900047D01*
X102345476Y27900047D02*
X102307380Y27823857D01*
X102307380Y27823857D02*
X102307380Y27671476D01*
X102307380Y27671476D02*
X102345476Y27595285D01*
X102345476Y27595285D02*
X102383571Y27557190D01*
X102383571Y27557190D02*
X102459761Y27519095D01*
X102459761Y27519095D02*
X102612142Y27519095D01*
X102612142Y27519095D02*
X102688333Y27557190D01*
X102688333Y27557190D02*
X102726428Y27595285D01*
X102726428Y27595285D02*
X102764523Y27671476D01*
X102764523Y27671476D02*
X102764523Y27823857D01*
X102764523Y27823857D02*
X102726428Y27900047D01*
X102726428Y27900047D02*
X102688333Y27938142D01*
X102688333Y27938142D02*
X102612142Y27976238D01*
X91716905Y47839095D02*
X91450238Y48220047D01*
X91259762Y47839095D02*
X91259762Y48639095D01*
X91259762Y48639095D02*
X91564524Y48639095D01*
X91564524Y48639095D02*
X91640714Y48601000D01*
X91640714Y48601000D02*
X91678809Y48562904D01*
X91678809Y48562904D02*
X91716905Y48486714D01*
X91716905Y48486714D02*
X91716905Y48372428D01*
X91716905Y48372428D02*
X91678809Y48296238D01*
X91678809Y48296238D02*
X91640714Y48258142D01*
X91640714Y48258142D02*
X91564524Y48220047D01*
X91564524Y48220047D02*
X91259762Y48220047D01*
X92021666Y47877190D02*
X92135952Y47839095D01*
X92135952Y47839095D02*
X92326428Y47839095D01*
X92326428Y47839095D02*
X92402619Y47877190D01*
X92402619Y47877190D02*
X92440714Y47915285D01*
X92440714Y47915285D02*
X92478809Y47991476D01*
X92478809Y47991476D02*
X92478809Y48067666D01*
X92478809Y48067666D02*
X92440714Y48143857D01*
X92440714Y48143857D02*
X92402619Y48181952D01*
X92402619Y48181952D02*
X92326428Y48220047D01*
X92326428Y48220047D02*
X92174047Y48258142D01*
X92174047Y48258142D02*
X92097857Y48296238D01*
X92097857Y48296238D02*
X92059762Y48334333D01*
X92059762Y48334333D02*
X92021666Y48410523D01*
X92021666Y48410523D02*
X92021666Y48486714D01*
X92021666Y48486714D02*
X92059762Y48562904D01*
X92059762Y48562904D02*
X92097857Y48601000D01*
X92097857Y48601000D02*
X92174047Y48639095D01*
X92174047Y48639095D02*
X92364524Y48639095D01*
X92364524Y48639095D02*
X92478809Y48601000D01*
X92707381Y48639095D02*
X93164524Y48639095D01*
X92935952Y47839095D02*
X92935952Y48639095D01*
X91602619Y52919095D02*
X91335952Y53300047D01*
X91145476Y52919095D02*
X91145476Y53719095D01*
X91145476Y53719095D02*
X91450238Y53719095D01*
X91450238Y53719095D02*
X91526428Y53681000D01*
X91526428Y53681000D02*
X91564523Y53642904D01*
X91564523Y53642904D02*
X91602619Y53566714D01*
X91602619Y53566714D02*
X91602619Y53452428D01*
X91602619Y53452428D02*
X91564523Y53376238D01*
X91564523Y53376238D02*
X91526428Y53338142D01*
X91526428Y53338142D02*
X91450238Y53300047D01*
X91450238Y53300047D02*
X91145476Y53300047D01*
X91907380Y53147666D02*
X92288333Y53147666D01*
X91831190Y52919095D02*
X92097857Y53719095D01*
X92097857Y53719095D02*
X92364523Y52919095D01*
X92554999Y53719095D02*
X92745475Y52919095D01*
X92745475Y52919095D02*
X92897856Y53490523D01*
X92897856Y53490523D02*
X93050237Y52919095D01*
X93050237Y52919095D02*
X93240714Y53719095D01*
X91183571Y30059095D02*
X91183571Y30859095D01*
X91183571Y30859095D02*
X91488333Y30859095D01*
X91488333Y30859095D02*
X91564523Y30821000D01*
X91564523Y30821000D02*
X91602618Y30782904D01*
X91602618Y30782904D02*
X91640714Y30706714D01*
X91640714Y30706714D02*
X91640714Y30592428D01*
X91640714Y30592428D02*
X91602618Y30516238D01*
X91602618Y30516238D02*
X91564523Y30478142D01*
X91564523Y30478142D02*
X91488333Y30440047D01*
X91488333Y30440047D02*
X91183571Y30440047D01*
X92402618Y30059095D02*
X91945475Y30059095D01*
X92174047Y30059095D02*
X92174047Y30859095D01*
X92174047Y30859095D02*
X92097856Y30744809D01*
X92097856Y30744809D02*
X92021666Y30668619D01*
X92021666Y30668619D02*
X91945475Y30630523D01*
X93088333Y30592428D02*
X93088333Y30059095D01*
X92897857Y30897190D02*
X92707380Y30325761D01*
X92707380Y30325761D02*
X93202619Y30325761D01*
X100783571Y24979095D02*
X100783571Y25779095D01*
X100783571Y25779095D02*
X101088333Y25779095D01*
X101088333Y25779095D02*
X101164523Y25741000D01*
X101164523Y25741000D02*
X101202618Y25702904D01*
X101202618Y25702904D02*
X101240714Y25626714D01*
X101240714Y25626714D02*
X101240714Y25512428D01*
X101240714Y25512428D02*
X101202618Y25436238D01*
X101202618Y25436238D02*
X101164523Y25398142D01*
X101164523Y25398142D02*
X101088333Y25360047D01*
X101088333Y25360047D02*
X100783571Y25360047D01*
X101735952Y25779095D02*
X101812142Y25779095D01*
X101812142Y25779095D02*
X101888333Y25741000D01*
X101888333Y25741000D02*
X101926428Y25702904D01*
X101926428Y25702904D02*
X101964523Y25626714D01*
X101964523Y25626714D02*
X102002618Y25474333D01*
X102002618Y25474333D02*
X102002618Y25283857D01*
X102002618Y25283857D02*
X101964523Y25131476D01*
X101964523Y25131476D02*
X101926428Y25055285D01*
X101926428Y25055285D02*
X101888333Y25017190D01*
X101888333Y25017190D02*
X101812142Y24979095D01*
X101812142Y24979095D02*
X101735952Y24979095D01*
X101735952Y24979095D02*
X101659761Y25017190D01*
X101659761Y25017190D02*
X101621666Y25055285D01*
X101621666Y25055285D02*
X101583571Y25131476D01*
X101583571Y25131476D02*
X101545475Y25283857D01*
X101545475Y25283857D02*
X101545475Y25474333D01*
X101545475Y25474333D02*
X101583571Y25626714D01*
X101583571Y25626714D02*
X101621666Y25702904D01*
X101621666Y25702904D02*
X101659761Y25741000D01*
X101659761Y25741000D02*
X101735952Y25779095D01*
X102383571Y24979095D02*
X102535952Y24979095D01*
X102535952Y24979095D02*
X102612142Y25017190D01*
X102612142Y25017190D02*
X102650238Y25055285D01*
X102650238Y25055285D02*
X102726428Y25169571D01*
X102726428Y25169571D02*
X102764523Y25321952D01*
X102764523Y25321952D02*
X102764523Y25626714D01*
X102764523Y25626714D02*
X102726428Y25702904D01*
X102726428Y25702904D02*
X102688333Y25741000D01*
X102688333Y25741000D02*
X102612142Y25779095D01*
X102612142Y25779095D02*
X102459761Y25779095D01*
X102459761Y25779095D02*
X102383571Y25741000D01*
X102383571Y25741000D02*
X102345476Y25702904D01*
X102345476Y25702904D02*
X102307380Y25626714D01*
X102307380Y25626714D02*
X102307380Y25436238D01*
X102307380Y25436238D02*
X102345476Y25360047D01*
X102345476Y25360047D02*
X102383571Y25321952D01*
X102383571Y25321952D02*
X102459761Y25283857D01*
X102459761Y25283857D02*
X102612142Y25283857D01*
X102612142Y25283857D02*
X102688333Y25321952D01*
X102688333Y25321952D02*
X102726428Y25360047D01*
X102726428Y25360047D02*
X102764523Y25436238D01*
X100783571Y35139095D02*
X100783571Y35939095D01*
X100783571Y35939095D02*
X101088333Y35939095D01*
X101088333Y35939095D02*
X101164523Y35901000D01*
X101164523Y35901000D02*
X101202618Y35862904D01*
X101202618Y35862904D02*
X101240714Y35786714D01*
X101240714Y35786714D02*
X101240714Y35672428D01*
X101240714Y35672428D02*
X101202618Y35596238D01*
X101202618Y35596238D02*
X101164523Y35558142D01*
X101164523Y35558142D02*
X101088333Y35520047D01*
X101088333Y35520047D02*
X100783571Y35520047D01*
X101735952Y35939095D02*
X101812142Y35939095D01*
X101812142Y35939095D02*
X101888333Y35901000D01*
X101888333Y35901000D02*
X101926428Y35862904D01*
X101926428Y35862904D02*
X101964523Y35786714D01*
X101964523Y35786714D02*
X102002618Y35634333D01*
X102002618Y35634333D02*
X102002618Y35443857D01*
X102002618Y35443857D02*
X101964523Y35291476D01*
X101964523Y35291476D02*
X101926428Y35215285D01*
X101926428Y35215285D02*
X101888333Y35177190D01*
X101888333Y35177190D02*
X101812142Y35139095D01*
X101812142Y35139095D02*
X101735952Y35139095D01*
X101735952Y35139095D02*
X101659761Y35177190D01*
X101659761Y35177190D02*
X101621666Y35215285D01*
X101621666Y35215285D02*
X101583571Y35291476D01*
X101583571Y35291476D02*
X101545475Y35443857D01*
X101545475Y35443857D02*
X101545475Y35634333D01*
X101545475Y35634333D02*
X101583571Y35786714D01*
X101583571Y35786714D02*
X101621666Y35862904D01*
X101621666Y35862904D02*
X101659761Y35901000D01*
X101659761Y35901000D02*
X101735952Y35939095D01*
X102726428Y35939095D02*
X102345476Y35939095D01*
X102345476Y35939095D02*
X102307380Y35558142D01*
X102307380Y35558142D02*
X102345476Y35596238D01*
X102345476Y35596238D02*
X102421666Y35634333D01*
X102421666Y35634333D02*
X102612142Y35634333D01*
X102612142Y35634333D02*
X102688333Y35596238D01*
X102688333Y35596238D02*
X102726428Y35558142D01*
X102726428Y35558142D02*
X102764523Y35481952D01*
X102764523Y35481952D02*
X102764523Y35291476D01*
X102764523Y35291476D02*
X102726428Y35215285D01*
X102726428Y35215285D02*
X102688333Y35177190D01*
X102688333Y35177190D02*
X102612142Y35139095D01*
X102612142Y35139095D02*
X102421666Y35139095D01*
X102421666Y35139095D02*
X102345476Y35177190D01*
X102345476Y35177190D02*
X102307380Y35215285D01*
%TO.C,T1*%
X105925000Y21215500D02*
X103075000Y21215500D01*
X103075000Y21215500D02*
X103075000Y14615500D01*
X105925000Y17915500D02*
X105925000Y21215500D01*
X105925000Y17915500D02*
X105925000Y14615500D01*
X105925000Y15965500D02*
X105925000Y19865500D01*
X103075000Y14615500D02*
X105925000Y14615500D01*
%TO.C,MCU1*%
X105845000Y57023000D02*
X88065000Y57023000D01*
X88065000Y57023000D02*
X88065000Y24003000D01*
X90605000Y54483000D02*
X88065000Y54483000D01*
X90605000Y54483000D02*
X90605000Y51943000D01*
X90605000Y51943000D02*
X88065000Y51943000D01*
X105845000Y24003000D02*
X105845000Y57023000D01*
X88065000Y24003000D02*
X105845000Y24003000D01*
%TO.C,JST1*%
X95110000Y21490000D02*
X101010000Y21490000D01*
X95110000Y13890000D02*
X95110000Y21490000D01*
X95810000Y15490000D02*
X95810000Y13890000D01*
X95810000Y13890000D02*
X95110000Y13890000D01*
X96810000Y16990000D02*
X97310000Y16990000D01*
X97060000Y16740000D02*
X97060000Y17240000D01*
X100310000Y15490000D02*
X95810000Y15490000D01*
X100310000Y13890000D02*
X100310000Y15490000D01*
X101010000Y21490000D02*
X101010000Y13890000D01*
X101010000Y13890000D02*
X100310000Y13890000D01*
%TD*%
D13*
%TO.C,MCU1*%
X89334999Y53212999D03*
D14*
X89335000Y50673000D03*
X89335000Y48133000D03*
X89335000Y45593000D03*
X89335000Y43053000D03*
X89335000Y40513000D03*
X89335000Y37973000D03*
X89335000Y35433000D03*
X89335000Y32893000D03*
X89335000Y30353000D03*
X89335000Y27813000D03*
X89335000Y25273000D03*
X104575000Y53213000D03*
X104575000Y50673000D03*
X104575000Y48133000D03*
X104575000Y45593000D03*
X104575000Y43053000D03*
X104575000Y40513000D03*
X104575000Y37973000D03*
X104575000Y35433000D03*
X104575000Y32893000D03*
X104575000Y30353000D03*
X104575000Y27813000D03*
X104575000Y25273000D03*
%TD*%
M02*
