%TF.GenerationSoftware,KiCad,Pcbnew,7.0.0*%
%TF.CreationDate,2023-02-26T13:34:35+00:00*%
%TF.ProjectId,olacc-34,6f6c6163-632d-4333-942e-6b696361645f,v1.0.0*%
%TF.SameCoordinates,Original*%
%TF.FileFunction,Soldermask,Top*%
%TF.FilePolarity,Negative*%
%FSLAX46Y46*%
G04 Gerber Fmt 4.6, Leading zero omitted, Abs format (unit mm)*
G04 Created by KiCad (PCBNEW 7.0.0) date 2023-02-26 13:34:35*
%MOMM*%
%LPD*%
G01*
G04 APERTURE LIST*
G04 Aperture macros list*
%AMRoundRect*
0 Rectangle with rounded corners*
0 $1 Rounding radius*
0 $2 $3 $4 $5 $6 $7 $8 $9 X,Y pos of 4 corners*
0 Add a 4 corners polygon primitive as box body*
4,1,4,$2,$3,$4,$5,$6,$7,$8,$9,$2,$3,0*
0 Add four circle primitives for the rounded corners*
1,1,$1+$1,$2,$3*
1,1,$1+$1,$4,$5*
1,1,$1+$1,$6,$7*
1,1,$1+$1,$8,$9*
0 Add four rect primitives between the rounded corners*
20,1,$1+$1,$2,$3,$4,$5,0*
20,1,$1+$1,$4,$5,$6,$7,0*
20,1,$1+$1,$6,$7,$8,$9,0*
20,1,$1+$1,$8,$9,$2,$3,0*%
G04 Aperture macros list end*
%ADD10C,4.087800*%
%ADD11C,1.801800*%
%ADD12C,2.386000*%
%ADD13RoundRect,0.050000X-0.876300X0.876300X-0.876300X-0.876300X0.876300X-0.876300X0.876300X0.876300X0*%
%ADD14C,1.852600*%
%ADD15C,1.100000*%
%ADD16RoundRect,0.050000X-0.625000X0.450000X-0.625000X-0.450000X0.625000X-0.450000X0.625000X0.450000X0*%
%ADD17RoundRect,0.050000X-0.450000X0.450000X-0.450000X-0.450000X0.450000X-0.450000X0.450000X0.450000X0*%
%ADD18RoundRect,0.050000X0.600000X0.850000X-0.600000X0.850000X-0.600000X-0.850000X0.600000X-0.850000X0*%
%ADD19O,1.300000X1.800000*%
%ADD20C,1.600000*%
%ADD21O,2.300000X1.700000*%
G04 APERTURE END LIST*
D10*
%TO.C,S11*%
X57000000Y31623000D03*
D11*
X62080000Y31623000D03*
X51920000Y31623000D03*
D12*
X59540000Y36703000D03*
X53190000Y34163000D03*
X54460000Y36703000D03*
X60810000Y34163000D03*
%TD*%
D10*
%TO.C,S14*%
X76000000Y28765500D03*
D11*
X81080000Y28765500D03*
X70920000Y28765500D03*
D12*
X78540000Y33845500D03*
X72190000Y31305500D03*
X73460000Y33845500D03*
X79810000Y31305500D03*
%TD*%
D10*
%TO.C,S1*%
X0Y0D03*
D11*
X5080000Y0D03*
X-5080000Y0D03*
D12*
X2540000Y5080000D03*
X-3810000Y2540000D03*
X-2540000Y5080000D03*
X3810000Y2540000D03*
%TD*%
D10*
%TO.C,S2*%
X0Y19050000D03*
D11*
X5080000Y19050000D03*
X-5080000Y19050000D03*
D12*
X2540000Y24130000D03*
X-3810000Y21590000D03*
X-2540000Y24130000D03*
X3810000Y21590000D03*
%TD*%
D10*
%TO.C,S3*%
X0Y38100000D03*
D11*
X5080000Y38100000D03*
X-5080000Y38100000D03*
D12*
X2540000Y43180000D03*
X-3810000Y40640000D03*
X-2540000Y43180000D03*
X3810000Y40640000D03*
%TD*%
D10*
%TO.C,S4*%
X19000000Y12573000D03*
D11*
X24080000Y12573000D03*
X13920000Y12573000D03*
D12*
X21540000Y17653000D03*
X15190000Y15113000D03*
X16460000Y17653000D03*
X22810000Y15113000D03*
%TD*%
D10*
%TO.C,S5*%
X19000000Y31623000D03*
D11*
X24080000Y31623000D03*
X13920000Y31623000D03*
D12*
X21540000Y36703000D03*
X15190000Y34163000D03*
X16460000Y36703000D03*
X22810000Y34163000D03*
%TD*%
D10*
%TO.C,S6*%
X19000000Y50673000D03*
D11*
X24080000Y50673000D03*
X13920000Y50673000D03*
D12*
X21540000Y55753000D03*
X15190000Y53213000D03*
X16460000Y55753000D03*
X22810000Y53213000D03*
%TD*%
D10*
%TO.C,S7*%
X38000000Y17335500D03*
D11*
X43080000Y17335500D03*
X32920000Y17335500D03*
D12*
X40540000Y22415500D03*
X34190000Y19875500D03*
X35460000Y22415500D03*
X41810000Y19875500D03*
%TD*%
D10*
%TO.C,S8*%
X38000000Y36385500D03*
D11*
X43080000Y36385500D03*
X32920000Y36385500D03*
D12*
X40540000Y41465500D03*
X34190000Y38925500D03*
X35460000Y41465500D03*
X41810000Y38925500D03*
%TD*%
D10*
%TO.C,S9*%
X38000000Y55435500D03*
D11*
X43080000Y55435500D03*
X32920000Y55435500D03*
D12*
X40540000Y60515500D03*
X34190000Y57975500D03*
X35460000Y60515500D03*
X41810000Y57975500D03*
%TD*%
D10*
%TO.C,S10*%
X57000000Y12573000D03*
D11*
X62080000Y12573000D03*
X51920000Y12573000D03*
D12*
X59540000Y17653000D03*
X53190000Y15113000D03*
X54460000Y17653000D03*
X60810000Y15113000D03*
%TD*%
D10*
%TO.C,S12*%
X57000000Y50673000D03*
D11*
X62080000Y50673000D03*
X51920000Y50673000D03*
D12*
X59540000Y55753000D03*
X53190000Y53213000D03*
X54460000Y55753000D03*
X60810000Y53213000D03*
%TD*%
D10*
%TO.C,S13*%
X76000000Y9715500D03*
D11*
X81080000Y9715500D03*
X70920000Y9715500D03*
D12*
X78540000Y14795500D03*
X72190000Y12255500D03*
X73460000Y14795500D03*
X79810000Y12255500D03*
%TD*%
D10*
%TO.C,S15*%
X76000000Y47815500D03*
D11*
X81080000Y47815500D03*
X70920000Y47815500D03*
D12*
X78540000Y52895500D03*
X72190000Y50355500D03*
X73460000Y52895500D03*
X79810000Y50355500D03*
%TD*%
D10*
%TO.C,S16*%
X74145000Y-12192000D03*
D11*
X79147823Y-13074133D03*
X69142177Y-11309867D03*
D12*
X77528544Y-7630243D03*
X70833949Y-9028989D03*
X72525721Y-6748110D03*
X78338184Y-10352188D03*
%TD*%
D10*
%TO.C,S17*%
X94079609Y-17533462D03*
D11*
X98853248Y-19270924D03*
X89305970Y-15796000D03*
D12*
X98203891Y-13628555D03*
X91368111Y-13843546D03*
X93430252Y-11891092D03*
X98528569Y-16449739D03*
%TD*%
D13*
%TO.C,MCU1*%
X89335000Y53213000D03*
D14*
X89335000Y50673000D03*
X89335000Y48133000D03*
X89335000Y45593000D03*
X89335000Y43053000D03*
X89335000Y40513000D03*
X89335000Y37973000D03*
X89335000Y35433000D03*
X89335000Y32893000D03*
X89335000Y30353000D03*
X89335000Y27813000D03*
X89335000Y25273000D03*
X104575000Y53213000D03*
X104575000Y50673000D03*
X104575000Y48133000D03*
X104575000Y45593000D03*
X104575000Y43053000D03*
X104575000Y40513000D03*
X104575000Y37973000D03*
X104575000Y35433000D03*
X104575000Y32893000D03*
X104575000Y30353000D03*
X104575000Y27813000D03*
X104575000Y25273000D03*
%TD*%
D15*
%TO.C,T1*%
X104575000Y16415500D03*
X104575000Y19415500D03*
D16*
X102500000Y15665500D03*
X102500000Y18665500D03*
X102500000Y20165500D03*
D17*
X105675000Y14215500D03*
X103475000Y14215500D03*
X103475000Y21615500D03*
X105675000Y21615500D03*
%TD*%
D15*
%TO.C,T2*%
X104575000Y16415500D03*
X104575000Y19415500D03*
%TD*%
D18*
%TO.C,JST1*%
X96050000Y15430500D03*
D19*
X94049999Y15430499D03*
%TD*%
D20*
%TO.C,TRRS1*%
X97400000Y9015500D03*
X104400000Y9015500D03*
X97400000Y6715500D03*
X104400000Y6715500D03*
D21*
X94699999Y9015499D03*
X95799999Y4415499D03*
X99799999Y4415499D03*
X102799999Y4415499D03*
X94699999Y6715499D03*
X95799999Y11315499D03*
X99799999Y11315499D03*
X102799999Y11315499D03*
%TD*%
M02*
