M48
; DRILL file {KiCad 7.0.0} date Sun 26 Feb 2023 13:34:22 GMT
; FORMAT={-:-/ absolute / inch / decimal}
; #@! TF.CreationDate,2023-02-26T13:34:22+00:00
; #@! TF.GenerationSoftware,Kicad,Pcbnew,7.0.0
; #@! TF.FileFunction,NonPlated,1,2,NPTH
FMAT,2
INCH
; #@! TA.AperFunction,NonPlated,NPTH,ComponentDrill
T1C0.0354
; #@! TA.AperFunction,NonPlated,NPTH,ComponentDrill
T2C0.0591
; #@! TA.AperFunction,NonPlated,NPTH,ComponentDrill
T3C0.0670
; #@! TA.AperFunction,NonPlated,NPTH,ComponentDrill
T4C0.1570
%
G90
G05
T1
X4.1171Y0.7644
X4.1171Y0.7644
X4.1171Y0.6463
X4.1171Y0.6463
T2
X3.8346Y0.3549
X3.8346Y0.2644
X4.1102Y0.3549
X4.1102Y0.2644
T3
X-0.2Y1.5
X-0.2Y0.75
X-0.2Y0.0
X0.2Y1.5
X0.2Y0.75
X0.2Y0.0
X0.548Y1.995
X0.548Y1.245
X0.548Y0.495
X0.948Y1.995
X0.948Y1.245
X0.948Y0.495
X1.2961Y2.1825
X1.2961Y1.4325
X1.2961Y0.6825
X1.6961Y2.1825
X1.6961Y1.4325
X1.6961Y0.6825
X2.0441Y1.995
X2.0441Y1.245
X2.0441Y0.495
X2.4441Y1.995
X2.4441Y1.245
X2.4441Y0.495
X2.7221Y-0.4453
X2.7921Y1.8825
X2.7921Y1.1325
X2.7921Y0.3825
X3.1161Y-0.5147
X3.1921Y1.8825
X3.1921Y1.1325
X3.1921Y0.3825
X3.516Y-0.6219
X3.8919Y-0.7587
T4
X0.0Y1.5
X0.0Y0.75
X0.0Y0.0
X0.748Y1.995
X0.748Y1.245
X0.748Y0.495
X1.4961Y2.1825
X1.4961Y1.4325
X1.4961Y0.6825
X2.2441Y1.995
X2.2441Y1.245
X2.2441Y0.495
X2.9191Y-0.48
X2.9921Y1.8825
X2.9921Y1.1325
X2.9921Y0.3825
X3.7039Y-0.6903
T0
M30
