%TF.GenerationSoftware,KiCad,Pcbnew,7.0.0*%
%TF.CreationDate,2023-02-26T13:34:35+00:00*%
%TF.ProjectId,olacc-34,6f6c6163-632d-4333-942e-6b696361645f,v1.0.0*%
%TF.SameCoordinates,Original*%
%TF.FileFunction,Legend,Bot*%
%TF.FilePolarity,Positive*%
%FSLAX46Y46*%
G04 Gerber Fmt 4.6, Leading zero omitted, Abs format (unit mm)*
G04 Created by KiCad (PCBNEW 7.0.0) date 2023-02-26 13:34:35*
%MOMM*%
%LPD*%
G01*
G04 APERTURE LIST*
%ADD10C,0.150000*%
%ADD11R,1.752600X1.752600*%
%ADD12C,1.752600*%
G04 APERTURE END LIST*
D10*
%TO.C,T2*%
X105925000Y15965500D02*
X105925000Y19865500D01*
X105925000Y17915500D02*
X105925000Y21215500D01*
X105925000Y21215500D02*
X103075000Y21215500D01*
X103075000Y21215500D02*
X103075000Y14615500D01*
X103075000Y14615500D02*
X105925000Y14615500D01*
X105925000Y17915500D02*
X105925000Y14615500D01*
%TO.C,JST1*%
X97300000Y15680500D02*
X97300000Y14080500D01*
X97300000Y14080500D02*
X98000000Y14080500D01*
X98000000Y14080500D02*
X98000000Y21680500D01*
X98000000Y21680500D02*
X92100000Y21680500D01*
X92100000Y21680500D02*
X92100000Y14080500D01*
X92100000Y14080500D02*
X92800000Y14080500D01*
X92800000Y14080500D02*
X92800000Y15680500D01*
X92800000Y15680500D02*
X97300000Y15680500D01*
X96050000Y16930500D02*
X96050000Y17430500D01*
X96300000Y17180500D02*
X95800000Y17180500D01*
%TD*%
D11*
%TO.C,MCU1*%
X89334999Y53212999D03*
D12*
X89335000Y50673000D03*
X89335000Y48133000D03*
X89335000Y45593000D03*
X89335000Y43053000D03*
X89335000Y40513000D03*
X89335000Y37973000D03*
X89335000Y35433000D03*
X89335000Y32893000D03*
X89335000Y30353000D03*
X89335000Y27813000D03*
X89335000Y25273000D03*
X104575000Y53213000D03*
X104575000Y50673000D03*
X104575000Y48133000D03*
X104575000Y45593000D03*
X104575000Y43053000D03*
X104575000Y40513000D03*
X104575000Y37973000D03*
X104575000Y35433000D03*
X104575000Y32893000D03*
X104575000Y30353000D03*
X104575000Y27813000D03*
X104575000Y25273000D03*
%TD*%
M02*
